{
  "version": "1.1.6",
  "modules": [
    {
      "id": 0,
      "plugin": "Fundamental",
      "version": "1.4.0",
      "model": "SEQ3",
      "params": [
        {
          "id": 0,
          "value": 2.66800141
        },
        {
          "id": 1,
          "value": 0.0
        },
        {
          "id": 2,
          "value": 0.0
        },
        {
          "id": 3,
          "value": 8.0
        },
        {
          "id": 4,
          "value": 2.30999827
        },
        {
          "id": 5,
          "value": 2.81499219
        },
        {
          "id": 6,
          "value": 1.58999777
        },
        {
          "id": 7,
          "value": 2.74500036
        },
        {
          "id": 8,
          "value": 4.05000162
        },
        {
          "id": 9,
          "value": 1.42499793
        },
        {
          "id": 10,
          "value": 2.86500025
        },
        {
          "id": 11,
          "value": 5.81499338
        },
        {
          "id": 12,
          "value": 0.0600000024
        },
        {
          "id": 13,
          "value": 1.11999631
        },
        {
          "id": 14,
          "value": 0.0
        },
        {
          "id": 15,
          "value": 4.01499748
        },
        {
          "id": 16,
          "value": 3.83500242
        },
        {
          "id": 17,
          "value": 0.0
        },
        {
          "id": 18,
          "value": 3.87000084
        },
        {
          "id": 19,
          "value": 5.96499777
        },
        {
          "id": 20,
          "value": 3.16500068
        },
        {
          "id": 21,
          "value": 3.28500605
        },
        {
          "id": 22,
          "value": 0.0
        },
        {
          "id": 23,
          "value": 5.62500572
        },
        {
          "id": 24,
          "value": 0.0
        },
        {
          "id": 25,
          "value": 1.54500282
        },
        {
          "id": 26,
          "value": 4.71000004
        },
        {
          "id": 27,
          "value": 1.10999954
        },
        {
          "id": 28,
          "value": 0.0
        },
        {
          "id": 29,
          "value": 0.0
        },
        {
          "id": 30,
          "value": 0.0
        },
        {
          "id": 31,
          "value": 0.0
        },
        {
          "id": 32,
          "value": 0.0
        },
        {
          "id": 33,
          "value": 0.0
        },
        {
          "id": 34,
          "value": 0.0
        },
        {
          "id": 35,
          "value": 0.0
        }
      ],
      "leftModuleId": 2,
      "rightModuleId": 7,
      "data": {
        "running": true,
        "gates": [
          1,
          0,
          1,
          0,
          1,
          0,
          1,
          0
        ]
      },
      "pos": [
        44,
        0
      ]
    },
    {
      "id": 1,
      "plugin": "Fundamental",
      "version": "1.4.0",
      "model": "VCO",
      "params": [
        {
          "id": 0,
          "value": 1.0
        },
        {
          "id": 1,
          "value": 1.0
        },
        {
          "id": 2,
          "value": -18.8460217
        },
        {
          "id": 3,
          "value": 0.555999756
        },
        {
          "id": 4,
          "value": 0.322499961
        },
        {
          "id": 5,
          "value": 0.654999912
        },
        {
          "id": 6,
          "value": 0.858999908
        }
      ],
      "rightModuleId": 6,
      "pos": [
        0,
        0
      ]
    },
    {
      "id": 2,
      "plugin": "Fundamental",
      "version": "1.4.0",
      "model": "Delay",
      "params": [
        {
          "id": 0,
          "value": 0.611497283
        },
        {
          "id": 1,
          "value": 0.640009284
        },
        {
          "id": 2,
          "value": 0.744999409
        },
        {
          "id": 3,
          "value": 1.0
        }
      ],
      "leftModuleId": 4,
      "rightModuleId": 0,
      "pos": [
        36,
        0
      ]
    },
    {
      "id": 3,
      "plugin": "Fundamental",
      "version": "1.4.0",
      "model": "LFO",
      "params": [
        {
          "id": 0,
          "value": 0.0
        },
        {
          "id": 1,
          "value": 0.0
        },
        {
          "id": 2,
          "value": -0.925991774
        },
        {
          "id": 3,
          "value": 0.643500566
        },
        {
          "id": 4,
          "value": 0.673499763
        },
        {
          "id": 5,
          "value": 0.352000087
        },
        {
          "id": 6,
          "value": 0.107999995
        }
      ],
      "leftModuleId": 6,
      "rightModuleId": 4,
      "pos": [
        18,
        0
      ]
    },
    {
      "id": 4,
      "plugin": "Fundamental",
      "version": "1.4.0",
      "model": "ADSR",
      "params": [
        {
          "id": 0,
          "value": 0.29399997
        },
        {
          "id": 1,
          "value": 0.595499873
        },
        {
          "id": 2,
          "value": 0.622000158
        },
        {
          "id": 3,
          "value": 0.369000018
        }
      ],
      "leftModuleId": 3,
      "rightModuleId": 2,
      "pos": [
        28,
        0
      ]
    },
    {
      "id": 5,
      "plugin": "Core",
      "version": "1.1.6",
      "model": "AudioInterface",
      "params": [],
      "leftModuleId": 7,
      "data": {
        "audio": {
          "driver": 1,
          "deviceName": "hw:TerraTec DMX6FireUSB,0",
          "offset": 0,
          "maxChannels": 8,
          "sampleRate": 44100,
          "blockSize": 1024
        }
      },
      "pos": [
        71,
        0
      ]
    },
    {
      "id": 6,
      "plugin": "Fundamental",
      "version": "1.4.0",
      "model": "VCF",
      "params": [
        {
          "id": 0,
          "value": 0.401998699
        },
        {
          "id": 1,
          "value": 0.361000061
        },
        {
          "id": 2,
          "value": 1.0
        },
        {
          "id": 3,
          "value": 0.744999707
        },
        {
          "id": 4,
          "value": 1.0
        }
      ],
      "leftModuleId": 1,
      "rightModuleId": 3,
      "pos": [
        10,
        0
      ]
    },
    {
      "id": 7,
      "plugin": "Fundamental",
      "version": "1.4.0",
      "model": "VCA",
      "params": [
        {
          "id": 0,
          "value": 0.407999992
        },
        {
          "id": 1,
          "value": 0.389999747
        }
      ],
      "leftModuleId": 0,
      "rightModuleId": 5,
      "pos": [
        66,
        0
      ]
    }
  ],
  "cables": [
    {
      "id": 4281,
      "outputModuleId": 7,
      "outputId": 0,
      "inputModuleId": 5,
      "inputId": 0,
      "color": "#c91847"
    },
    {
      "id": 4282,
      "outputModuleId": 6,
      "outputId": 0,
      "inputModuleId": 7,
      "inputId": 2,
      "color": "#0986ad"
    },
    {
      "id": 4283,
      "outputModuleId": 6,
      "outputId": 1,
      "inputModuleId": 2,
      "inputId": 4,
      "color": "#0c8e15"
    },
    {
      "id": 4284,
      "outputModuleId": 1,
      "outputId": 3,
      "inputModuleId": 6,
      "inputId": 3,
      "color": "#c9b70e"
    },
    {
      "id": 4285,
      "outputModuleId": 0,
      "outputId": 1,
      "inputModuleId": 4,
      "inputId": 4,
      "color": "#0986ad"
    },
    {
      "id": 4286,
      "outputModuleId": 7,
      "outputId": 1,
      "inputModuleId": 5,
      "inputId": 1,
      "color": "#c91847"
    },
    {
      "id": 4287,
      "outputModuleId": 2,
      "outputId": 0,
      "inputModuleId": 7,
      "inputId": 5,
      "color": "#c91847"
    },
    {
      "id": 4288,
      "outputModuleId": 3,
      "outputId": 2,
      "inputModuleId": 1,
      "inputId": 3,
      "color": "#c91847"
    },
    {
      "id": 4289,
      "outputModuleId": 0,
      "outputId": 3,
      "inputModuleId": 1,
      "inputId": 0,
      "color": "#0c8e15"
    },
    {
      "id": 4290,
      "outputModuleId": 4,
      "outputId": 0,
      "inputModuleId": 6,
      "inputId": 0,
      "color": "#c9b70e"
    },
    {
      "id": 4291,
      "outputModuleId": 3,
      "outputId": 3,
      "inputModuleId": 1,
      "inputId": 1,
      "color": "#0c8e15"
    },
    {
      "id": 4292,
      "outputModuleId": 3,
      "outputId": 1,
      "inputModuleId": 6,
      "inputId": 1,
      "color": "#c9b70e"
    },
    {
      "id": 4294,
      "outputModuleId": 1,
      "outputId": 1,
      "inputModuleId": 1,
      "inputId": 2,
      "color": "#c91847"
    },
    {
      "id": 4295,
      "outputModuleId": 3,
      "outputId": 0,
      "inputModuleId": 3,
      "inputId": 0,
      "color": "#0c8e15"
    },
    {
      "id": 4293,
      "outputModuleId": 0,
      "outputId": 0,
      "inputModuleId": 2,
      "inputId": 1,
      "color": "#c9b70e"
    }
  ]
}