{
  "version": "1.1.6",
  "modules": [
    {
      "id": 0,
      "plugin": "Fundamental",
      "version": "1.4.0",
      "model": "SEQ3",
      "params": [
        {
          "id": 0,
          "value": 0.352001846
        },
        {
          "id": 1,
          "value": 0.0
        },
        {
          "id": 2,
          "value": 0.0
        },
        {
          "id": 3,
          "value": 8.0
        },
        {
          "id": 4,
          "value": 2.49999404
        },
        {
          "id": 5,
          "value": 5.28000164
        },
        {
          "id": 6,
          "value": 4.03000116
        },
        {
          "id": 7,
          "value": 0.120000005
        },
        {
          "id": 8,
          "value": 4.05000162
        },
        {
          "id": 9,
          "value": 1.42499793
        },
        {
          "id": 10,
          "value": 2.86500025
        },
        {
          "id": 11,
          "value": 6.84999323
        },
        {
          "id": 12,
          "value": 2.6849997
        },
        {
          "id": 13,
          "value": 2.91000032
        },
        {
          "id": 14,
          "value": 8.39499187
        },
        {
          "id": 15,
          "value": 6.42000246
        },
        {
          "id": 16,
          "value": 8.60499668
        },
        {
          "id": 17,
          "value": 8.44000149
        },
        {
          "id": 18,
          "value": 6.83499765
        },
        {
          "id": 19,
          "value": 5.43999863
        },
        {
          "id": 20,
          "value": 1.84499872
        },
        {
          "id": 21,
          "value": 0.404999077
        },
        {
          "id": 22,
          "value": 0.0
        },
        {
          "id": 23,
          "value": 3.07500267
        },
        {
          "id": 24,
          "value": 2.97000074
        },
        {
          "id": 25,
          "value": 0.0
        },
        {
          "id": 26,
          "value": 3.5999999
        },
        {
          "id": 27,
          "value": 2.0249989
        },
        {
          "id": 28,
          "value": 0.0
        },
        {
          "id": 29,
          "value": 0.0
        },
        {
          "id": 30,
          "value": 0.0
        },
        {
          "id": 31,
          "value": 0.0
        },
        {
          "id": 32,
          "value": 0.0
        },
        {
          "id": 33,
          "value": 0.0
        },
        {
          "id": 34,
          "value": 0.0
        },
        {
          "id": 35,
          "value": 0.0
        }
      ],
      "leftModuleId": 2,
      "rightModuleId": 7,
      "data": {
        "running": true,
        "gates": [
          0,
          0,
          0,
          0,
          0,
          0,
          0,
          0
        ]
      },
      "pos": [
        44,
        0
      ]
    },
    {
      "id": 1,
      "plugin": "Fundamental",
      "version": "1.4.0",
      "model": "VCO",
      "params": [
        {
          "id": 0,
          "value": 1.0
        },
        {
          "id": 1,
          "value": 0.0
        },
        {
          "id": 2,
          "value": -54.0
        },
        {
          "id": 3,
          "value": -0.164000288
        },
        {
          "id": 4,
          "value": 0.095500648
        },
        {
          "id": 5,
          "value": 0.590498567
        },
        {
          "id": 6,
          "value": 0.977999806
        }
      ],
      "rightModuleId": 6,
      "pos": [
        0,
        0
      ]
    },
    {
      "id": 2,
      "plugin": "Fundamental",
      "version": "1.4.0",
      "model": "Delay",
      "params": [
        {
          "id": 0,
          "value": 0.621997476
        },
        {
          "id": 1,
          "value": 0.711999297
        },
        {
          "id": 2,
          "value": 0.617500007
        },
        {
          "id": 3,
          "value": 1.0
        }
      ],
      "leftModuleId": 4,
      "rightModuleId": 0,
      "pos": [
        36,
        0
      ]
    },
    {
      "id": 3,
      "plugin": "Fundamental",
      "version": "1.4.0",
      "model": "LFO",
      "params": [
        {
          "id": 0,
          "value": 0.0
        },
        {
          "id": 1,
          "value": 0.0
        },
        {
          "id": 2,
          "value": -1.87099314
        },
        {
          "id": 3,
          "value": 0.108000144
        },
        {
          "id": 4,
          "value": 0.892500699
        },
        {
          "id": 5,
          "value": 0.37599948
        },
        {
          "id": 6,
          "value": 0.367500186
        }
      ],
      "leftModuleId": 6,
      "rightModuleId": 4,
      "pos": [
        18,
        0
      ]
    },
    {
      "id": 4,
      "plugin": "Fundamental",
      "version": "1.4.0",
      "model": "ADSR",
      "params": [
        {
          "id": 0,
          "value": 0.0839999989
        },
        {
          "id": 1,
          "value": 0.391500771
        },
        {
          "id": 2,
          "value": 0.785500228
        },
        {
          "id": 3,
          "value": 0.349000394
        }
      ],
      "leftModuleId": 3,
      "rightModuleId": 2,
      "pos": [
        28,
        0
      ]
    },
    {
      "id": 5,
      "plugin": "Core",
      "version": "1.1.6",
      "model": "AudioInterface",
      "params": [],
      "leftModuleId": 7,
      "data": {
        "audio": {
          "driver": 1,
          "deviceName": "hw:HD-Audio Generic,0",
          "offset": 0,
          "maxChannels": 8,
          "sampleRate": 44100,
          "blockSize": 2048
        }
      },
      "pos": [
        71,
        0
      ]
    },
    {
      "id": 6,
      "plugin": "Fundamental",
      "version": "1.4.0",
      "model": "VCF",
      "params": [
        {
          "id": 0,
          "value": 0.309997827
        },
        {
          "id": 1,
          "value": 0.350999951
        },
        {
          "id": 2,
          "value": 1.0
        },
        {
          "id": 3,
          "value": 0.673999786
        },
        {
          "id": 4,
          "value": 0.329500049
        }
      ],
      "leftModuleId": 1,
      "rightModuleId": 3,
      "pos": [
        10,
        0
      ]
    },
    {
      "id": 7,
      "plugin": "Fundamental",
      "version": "1.4.0",
      "model": "VCA",
      "params": [
        {
          "id": 0,
          "value": 0.728500485
        },
        {
          "id": 1,
          "value": 0.310000211
        }
      ],
      "leftModuleId": 0,
      "rightModuleId": 5,
      "pos": [
        66,
        0
      ]
    }
  ],
  "cables": [
    {
      "id": 4351,
      "outputModuleId": 3,
      "outputId": 3,
      "inputModuleId": 4,
      "inputId": 4,
      "color": "#0986ad"
    },
    {
      "id": 4353,
      "outputModuleId": 0,
      "outputId": 3,
      "inputModuleId": 4,
      "inputId": 2,
      "color": "#c91847"
    },
    {
      "id": 4354,
      "outputModuleId": 3,
      "outputId": 0,
      "inputModuleId": 1,
      "inputId": 1,
      "color": "#c9b70e"
    },
    {
      "id": 4355,
      "outputModuleId": 1,
      "outputId": 0,
      "inputModuleId": 2,
      "inputId": 3,
      "color": "#0986ad"
    },
    {
      "id": 4357,
      "outputModuleId": 7,
      "outputId": 0,
      "inputModuleId": 6,
      "inputId": 0,
      "color": "#c9b70e"
    },
    {
      "id": 4348,
      "outputModuleId": 6,
      "outputId": 1,
      "inputModuleId": 2,
      "inputId": 4,
      "color": "#0c8e15"
    },
    {
      "id": 4613,
      "outputModuleId": 4,
      "outputId": 0,
      "inputModuleId": 7,
      "inputId": 2,
      "color": "#c9b70e"
    },
    {
      "id": 4614,
      "outputModuleId": 2,
      "outputId": 0,
      "inputModuleId": 7,
      "inputId": 5,
      "color": "#0c8e15"
    },
    {
      "id": 4615,
      "outputModuleId": 7,
      "outputId": 1,
      "inputModuleId": 5,
      "inputId": 0,
      "color": "#0c8e15"
    },
    {
      "id": 4616,
      "outputModuleId": 7,
      "outputId": 1,
      "inputModuleId": 5,
      "inputId": 1,
      "color": "#0c8e15"
    },
    {
      "id": 4359,
      "outputModuleId": 3,
      "outputId": 2,
      "inputModuleId": 0,
      "inputId": 1,
      "color": "#c9b70e"
    },
    {
      "id": 4352,
      "outputModuleId": 3,
      "outputId": 1,
      "inputModuleId": 6,
      "inputId": 1,
      "color": "#c91847"
    }
  ]
}