{
  "version": "1.1.6",
  "modules": [
    {
      "id": 0,
      "plugin": "Fundamental",
      "version": "1.4.0",
      "model": "SEQ3",
      "params": [
        {
          "id": 0,
          "value": -2.0
        },
        {
          "id": 1,
          "value": 0.0
        },
        {
          "id": 2,
          "value": 0.0
        },
        {
          "id": 3,
          "value": 8.0
        },
        {
          "id": 4,
          "value": 2.1999917
        },
        {
          "id": 5,
          "value": 3.0
        },
        {
          "id": 6,
          "value": 2.61000204
        },
        {
          "id": 7,
          "value": 2.33999896
        },
        {
          "id": 8,
          "value": 2.38499951
        },
        {
          "id": 9,
          "value": 1.844998
        },
        {
          "id": 10,
          "value": 2.07000613
        },
        {
          "id": 11,
          "value": 1.42500043
        },
        {
          "id": 12,
          "value": 0.414994389
        },
        {
          "id": 13,
          "value": 1.08000696
        },
        {
          "id": 14,
          "value": 0.764999986
        },
        {
          "id": 15,
          "value": 2.83500028
        },
        {
          "id": 16,
          "value": 1.70999885
        },
        {
          "id": 17,
          "value": 2.05499887
        },
        {
          "id": 18,
          "value": 1.99499977
        },
        {
          "id": 19,
          "value": 0.569999397
        },
        {
          "id": 20,
          "value": 2.49999475
        },
        {
          "id": 21,
          "value": 1.85999858
        },
        {
          "id": 22,
          "value": 1.12500072
        },
        {
          "id": 23,
          "value": 2.63999963
        },
        {
          "id": 24,
          "value": 1.81500328
        },
        {
          "id": 25,
          "value": 1.9799943
        },
        {
          "id": 26,
          "value": 1.39499855
        },
        {
          "id": 27,
          "value": 1.96499979
        },
        {
          "id": 28,
          "value": 0.0
        },
        {
          "id": 29,
          "value": 0.0
        },
        {
          "id": 30,
          "value": 0.0
        },
        {
          "id": 31,
          "value": 0.0
        },
        {
          "id": 32,
          "value": 0.0
        },
        {
          "id": 33,
          "value": 0.0
        },
        {
          "id": 34,
          "value": 0.0
        },
        {
          "id": 35,
          "value": 0.0
        }
      ],
      "leftModuleId": 2,
      "rightModuleId": 7,
      "data": {
        "running": true,
        "gates": [
          1,
          1,
          1,
          1,
          1,
          1,
          1,
          1
        ]
      },
      "pos": [
        44,
        0
      ]
    },
    {
      "id": 1,
      "plugin": "Fundamental",
      "version": "1.4.0",
      "model": "VCO",
      "params": [
        {
          "id": 0,
          "value": 0.0
        },
        {
          "id": 1,
          "value": 1.0
        },
        {
          "id": 2,
          "value": 23.5980415
        },
        {
          "id": 3,
          "value": -0.406999886
        },
        {
          "id": 4,
          "value": 0.293499261
        },
        {
          "id": 5,
          "value": 0.936000466
        },
        {
          "id": 6,
          "value": 0.828000009
        }
      ],
      "rightModuleId": 6,
      "pos": [
        0,
        0
      ]
    },
    {
      "id": 2,
      "plugin": "Fundamental",
      "version": "1.4.0",
      "model": "Delay",
      "params": [
        {
          "id": 0,
          "value": 0.516000032
        },
        {
          "id": 1,
          "value": 0.452501655
        },
        {
          "id": 2,
          "value": 0.819999397
        },
        {
          "id": 3,
          "value": 0.57299912
        }
      ],
      "leftModuleId": 4,
      "rightModuleId": 0,
      "pos": [
        36,
        0
      ]
    },
    {
      "id": 3,
      "plugin": "Fundamental",
      "version": "1.4.0",
      "model": "LFO",
      "params": [
        {
          "id": 0,
          "value": 1.0
        },
        {
          "id": 1,
          "value": 0.0
        },
        {
          "id": 2,
          "value": -3.6260097
        },
        {
          "id": 3,
          "value": 0.233999968
        },
        {
          "id": 4,
          "value": 0.395500094
        },
        {
          "id": 5,
          "value": 0.407500267
        },
        {
          "id": 6,
          "value": 0.544000626
        }
      ],
      "leftModuleId": 6,
      "rightModuleId": 4,
      "pos": [
        18,
        0
      ]
    },
    {
      "id": 4,
      "plugin": "Fundamental",
      "version": "1.4.0",
      "model": "ADSR",
      "params": [
        {
          "id": 0,
          "value": 0.0
        },
        {
          "id": 1,
          "value": 0.682000399
        },
        {
          "id": 2,
          "value": 0.399000049
        },
        {
          "id": 3,
          "value": 0.647499681
        }
      ],
      "leftModuleId": 3,
      "rightModuleId": 2,
      "pos": [
        28,
        0
      ]
    },
    {
      "id": 5,
      "plugin": "Core",
      "version": "1.1.6",
      "model": "AudioInterface",
      "params": [],
      "leftModuleId": 7,
      "data": {
        "audio": {
          "driver": 1,
          "deviceName": "hw:TerraTec DMX6FireUSB,0",
          "offset": 0,
          "maxChannels": 8,
          "sampleRate": 44100,
          "blockSize": 1024
        }
      },
      "pos": [
        71,
        0
      ]
    },
    {
      "id": 6,
      "plugin": "Fundamental",
      "version": "1.4.0",
      "model": "VCF",
      "params": [
        {
          "id": 0,
          "value": 0.728499711
        },
        {
          "id": 1,
          "value": 0.483000934
        },
        {
          "id": 2,
          "value": 0.0
        },
        {
          "id": 3,
          "value": -0.0650001541
        },
        {
          "id": 4,
          "value": 1.0
        }
      ],
      "leftModuleId": 1,
      "rightModuleId": 3,
      "pos": [
        10,
        0
      ]
    },
    {
      "id": 7,
      "plugin": "Fundamental",
      "version": "1.4.0",
      "model": "VCA",
      "params": [
        {
          "id": 0,
          "value": 0.0
        },
        {
          "id": 1,
          "value": 1.0
        }
      ],
      "leftModuleId": 0,
      "rightModuleId": 5,
      "pos": [
        66,
        0
      ]
    }
  ],
  "cables": [
    {
      "id": 4501,
      "outputModuleId": 1,
      "outputId": 1,
      "inputModuleId": 6,
      "inputId": 3,
      "color": "#c91847"
    },
    {
      "id": 4502,
      "outputModuleId": 0,
      "outputId": 0,
      "inputModuleId": 4,
      "inputId": 4,
      "color": "#0c8e15"
    },
    {
      "id": 4503,
      "outputModuleId": 7,
      "outputId": 1,
      "inputModuleId": 2,
      "inputId": 4,
      "color": "#c91847"
    },
    {
      "id": 4504,
      "outputModuleId": 4,
      "outputId": 0,
      "inputModuleId": 7,
      "inputId": 3,
      "color": "#0986ad"
    },
    {
      "id": 4505,
      "outputModuleId": 6,
      "outputId": 1,
      "inputModuleId": 7,
      "inputId": 5,
      "color": "#c9b70e"
    },
    {
      "id": 4506,
      "outputModuleId": 0,
      "outputId": 1,
      "inputModuleId": 1,
      "inputId": 0,
      "color": "#0986ad"
    },
    {
      "id": 4508,
      "outputModuleId": 3,
      "outputId": 0,
      "inputModuleId": 1,
      "inputId": 1,
      "color": "#c9b70e"
    },
    {
      "id": 4509,
      "outputModuleId": 3,
      "outputId": 2,
      "inputModuleId": 0,
      "inputId": 3,
      "color": "#0c8e15"
    },
    {
      "id": 4510,
      "outputModuleId": 3,
      "outputId": 1,
      "inputModuleId": 0,
      "inputId": 0,
      "color": "#0986ad"
    },
    {
      "id": 4512,
      "outputModuleId": 3,
      "outputId": 3,
      "inputModuleId": 6,
      "inputId": 1,
      "color": "#0986ad"
    },
    {
      "id": 4511,
      "outputModuleId": 6,
      "outputId": 0,
      "inputModuleId": 5,
      "inputId": 0,
      "color": "#0c8e15"
    },
    {
      "id": 4507,
      "outputModuleId": 2,
      "outputId": 0,
      "inputModuleId": 5,
      "inputId": 1,
      "color": "#c9b70e"
    }
  ]
}