{
  "version": "1.1.6",
  "modules": [
    {
      "id": 0,
      "plugin": "Fundamental",
      "version": "1.4.0",
      "model": "SEQ3",
      "params": [
        {
          "id": 0,
          "value": 1.4000001
        },
        {
          "id": 1,
          "value": 0.0
        },
        {
          "id": 2,
          "value": 0.0
        },
        {
          "id": 3,
          "value": 8.0
        },
        {
          "id": 4,
          "value": 0.0
        },
        {
          "id": 5,
          "value": 0.0600000024
        },
        {
          "id": 6,
          "value": 0.0
        },
        {
          "id": 7,
          "value": 0.0
        },
        {
          "id": 8,
          "value": 0.0150000006
        },
        {
          "id": 9,
          "value": 0.0
        },
        {
          "id": 10,
          "value": 0.0
        },
        {
          "id": 11,
          "value": 0.0
        },
        {
          "id": 12,
          "value": 0.759999394
        },
        {
          "id": 13,
          "value": 2.28000617
        },
        {
          "id": 14,
          "value": 6.68500042
        },
        {
          "id": 15,
          "value": 1.72500026
        },
        {
          "id": 16,
          "value": 6.77500248
        },
        {
          "id": 17,
          "value": 2.65499973
        },
        {
          "id": 18,
          "value": 9.30999851
        },
        {
          "id": 19,
          "value": 4.90500069
        },
        {
          "id": 20,
          "value": 3.54999995
        },
        {
          "id": 21,
          "value": 4.7699995
        },
        {
          "id": 22,
          "value": 6.83499908
        },
        {
          "id": 23,
          "value": 3.22500062
        },
        {
          "id": 24,
          "value": 6.85000229
        },
        {
          "id": 25,
          "value": 2.88000131
        },
        {
          "id": 26,
          "value": 3.41500044
        },
        {
          "id": 27,
          "value": 4.650002
        },
        {
          "id": 28,
          "value": 0.0
        },
        {
          "id": 29,
          "value": 0.0
        },
        {
          "id": 30,
          "value": 0.0
        },
        {
          "id": 31,
          "value": 0.0
        },
        {
          "id": 32,
          "value": 0.0
        },
        {
          "id": 33,
          "value": 0.0
        },
        {
          "id": 34,
          "value": 0.0
        },
        {
          "id": 35,
          "value": 0.0
        }
      ],
      "leftModuleId": 9,
      "rightModuleId": 8,
      "data": {
        "running": true,
        "gates": [
          1,
          0,
          1,
          0,
          1,
          0,
          1,
          0
        ]
      },
      "pos": [
        50,
        0
      ]
    },
    {
      "id": 1,
      "plugin": "Fundamental",
      "version": "1.4.0",
      "model": "VCO",
      "params": [
        {
          "id": 0,
          "value": 0.0
        },
        {
          "id": 1,
          "value": 1.0
        },
        {
          "id": 2,
          "value": -27.1080017
        },
        {
          "id": 3,
          "value": -1.0
        },
        {
          "id": 4,
          "value": 0.302499712
        },
        {
          "id": 5,
          "value": 0.579381108
        },
        {
          "id": 6,
          "value": 0.0670001581
        }
      ],
      "rightModuleId": 7,
      "pos": [
        0,
        0
      ]
    },
    {
      "id": 2,
      "plugin": "Fundamental",
      "version": "1.4.0",
      "model": "Delay",
      "params": [
        {
          "id": 0,
          "value": 0.631502688
        },
        {
          "id": 1,
          "value": 0.564999998
        },
        {
          "id": 2,
          "value": 0.563500226
        },
        {
          "id": 3,
          "value": 1.0
        }
      ],
      "leftModuleId": 4,
      "rightModuleId": 9,
      "pos": [
        36,
        0
      ]
    },
    {
      "id": 3,
      "plugin": "Fundamental",
      "version": "1.4.0",
      "model": "LFO",
      "params": [
        {
          "id": 0,
          "value": 0.0
        },
        {
          "id": 1,
          "value": 0.0
        },
        {
          "id": 2,
          "value": -0.413004845
        },
        {
          "id": 3,
          "value": 0.289499938
        },
        {
          "id": 4,
          "value": 0.120000012
        },
        {
          "id": 5,
          "value": 0.134949952
        },
        {
          "id": 6,
          "value": 0.401500493
        }
      ],
      "leftModuleId": 7,
      "rightModuleId": 4,
      "pos": [
        18,
        0
      ]
    },
    {
      "id": 4,
      "plugin": "Fundamental",
      "version": "1.4.0",
      "model": "ADSR",
      "params": [
        {
          "id": 0,
          "value": 0.269500107
        },
        {
          "id": 1,
          "value": 0.129999101
        },
        {
          "id": 2,
          "value": 0.607499361
        },
        {
          "id": 3,
          "value": 0.382000059
        }
      ],
      "leftModuleId": 3,
      "rightModuleId": 2,
      "pos": [
        28,
        0
      ]
    },
    {
      "id": 6,
      "plugin": "Core",
      "version": "1.1.6",
      "model": "AudioInterface",
      "params": [],
      "leftModuleId": 10,
      "data": {
        "audio": {
          "driver": 1,
          "deviceName": "hw:TerraTec DMX6FireUSB,0",
          "offset": 0,
          "maxChannels": 8,
          "sampleRate": 44100,
          "blockSize": 1024
        }
      },
      "pos": [
        82,
        0
      ]
    },
    {
      "id": 7,
      "plugin": "Fundamental",
      "version": "1.4.0",
      "model": "VCF",
      "params": [
        {
          "id": 0,
          "value": 0.677499652
        },
        {
          "id": 1,
          "value": 0.5
        },
        {
          "id": 2,
          "value": 0.884499907
        },
        {
          "id": 3,
          "value": 0.639999986
        },
        {
          "id": 4,
          "value": 0.348999619
        }
      ],
      "leftModuleId": 1,
      "rightModuleId": 3,
      "pos": [
        10,
        0
      ]
    },
    {
      "id": 8,
      "plugin": "Fundamental",
      "version": "1.4.0",
      "model": "VCA",
      "params": [
        {
          "id": 0,
          "value": 0.848500013
        },
        {
          "id": 1,
          "value": 0.979000092
        }
      ],
      "leftModuleId": 0,
      "rightModuleId": 10,
      "pos": [
        72,
        0
      ]
    },
    {
      "id": 9,
      "plugin": "Fundamental",
      "version": "1.4.0",
      "model": "LFO2",
      "params": [
        {
          "id": 0,
          "value": 0.0
        },
        {
          "id": 1,
          "value": 0.0
        },
        {
          "id": 2,
          "value": 0.279984266
        },
        {
          "id": 3,
          "value": 2.06400251
        },
        {
          "id": 4,
          "value": 0.192498997
        }
      ],
      "leftModuleId": 2,
      "rightModuleId": 0,
      "pos": [
        44,
        0
      ]
    },
    {
      "id": 10,
      "plugin": "Fundamental",
      "version": "1.4.0",
      "model": "MidSide",
      "params": [
        {
          "id": 0,
          "value": 1.0
        },
        {
          "id": 1,
          "value": 1.0
        }
      ],
      "leftModuleId": 8,
      "rightModuleId": 6,
      "pos": [
        77,
        0
      ]
    }
  ],
  "cables": [
    {
      "id": 5276,
      "outputModuleId": 7,
      "outputId": 1,
      "inputModuleId": 2,
      "inputId": 4,
      "color": "#c91847"
    },
    {
      "id": 5277,
      "outputModuleId": 7,
      "outputId": 0,
      "inputModuleId": 8,
      "inputId": 2,
      "color": "#0986ad"
    },
    {
      "id": 5273,
      "outputModuleId": 1,
      "outputId": 3,
      "inputModuleId": 7,
      "inputId": 3,
      "color": "#c91847"
    },
    {
      "id": 4076,
      "outputModuleId": 2,
      "outputId": 0,
      "inputModuleId": 8,
      "inputId": 5,
      "color": "#0c8e15"
    },
    {
      "id": 5380,
      "outputModuleId": 3,
      "outputId": 0,
      "inputModuleId": 1,
      "inputId": 1,
      "color": "#c9b70e"
    },
    {
      "id": 5386,
      "outputModuleId": 3,
      "outputId": 3,
      "inputModuleId": 1,
      "inputId": 3,
      "color": "#c91847"
    },
    {
      "id": 5390,
      "outputModuleId": 1,
      "outputId": 2,
      "inputModuleId": 3,
      "inputId": 0,
      "color": "#c91847"
    },
    {
      "id": 5391,
      "outputModuleId": 0,
      "outputId": 0,
      "inputModuleId": 3,
      "inputId": 3,
      "color": "#0986ad"
    },
    {
      "id": 4078,
      "outputModuleId": 9,
      "outputId": 0,
      "inputModuleId": 4,
      "inputId": 4,
      "color": "#0c8e15"
    },
    {
      "id": 5396,
      "outputModuleId": 1,
      "outputId": 1,
      "inputModuleId": 1,
      "inputId": 2,
      "color": "#c91847"
    },
    {
      "id": 5387,
      "outputModuleId": 0,
      "outputId": 3,
      "inputModuleId": 7,
      "inputId": 2,
      "color": "#0986ad"
    },
    {
      "id": 5388,
      "outputModuleId": 3,
      "outputId": 1,
      "inputModuleId": 7,
      "inputId": 1,
      "color": "#c9b70e"
    },
    {
      "id": 5376,
      "outputModuleId": 0,
      "outputId": 2,
      "inputModuleId": 7,
      "inputId": 0,
      "color": "#c9b70e"
    },
    {
      "id": 5283,
      "outputModuleId": 4,
      "outputId": 0,
      "inputModuleId": 1,
      "inputId": 0,
      "color": "#0c8e15"
    },
    {
      "id": 5288,
      "outputModuleId": 8,
      "outputId": 0,
      "inputModuleId": 10,
      "inputId": 1,
      "color": "#0986ad"
    },
    {
      "id": 5400,
      "outputModuleId": 10,
      "outputId": 2,
      "inputModuleId": 6,
      "inputId": 0,
      "color": "#c91847"
    },
    {
      "id": 5401,
      "outputModuleId": 10,
      "outputId": 0,
      "inputModuleId": 10,
      "inputId": 4,
      "color": "#0986ad"
    },
    {
      "id": 5402,
      "outputModuleId": 10,
      "outputId": 3,
      "inputModuleId": 6,
      "inputId": 1,
      "color": "#c9b70e"
    },
    {
      "id": 5403,
      "outputModuleId": 8,
      "outputId": 1,
      "inputModuleId": 10,
      "inputId": 2,
      "color": "#c91847"
    },
    {
      "id": 5404,
      "outputModuleId": 10,
      "outputId": 1,
      "inputModuleId": 10,
      "inputId": 5,
      "color": "#0986ad"
    },
    {
      "id": 5416,
      "outputModuleId": 0,
      "outputId": 1,
      "inputModuleId": 2,
      "inputId": 0,
      "color": "#c9b70e"
    },
    {
      "id": 5419,
      "outputModuleId": 1,
      "outputId": 0,
      "inputModuleId": 4,
      "inputId": 2,
      "color": "#0986ad"
    }
  ]
}