{
  "version": "1.1.6",
  "modules": [
    {
      "id": 0,
      "plugin": "Fundamental",
      "version": "1.4.0",
      "model": "SEQ3",
      "params": [
        {
          "id": 0,
          "value": 0.235999614
        },
        {
          "id": 1,
          "value": 0.0
        },
        {
          "id": 2,
          "value": 0.0
        },
        {
          "id": 3,
          "value": 8.0
        },
        {
          "id": 4,
          "value": 0.0
        },
        {
          "id": 5,
          "value": 7.30500078
        },
        {
          "id": 6,
          "value": 0.0
        },
        {
          "id": 7,
          "value": 3.18000484
        },
        {
          "id": 8,
          "value": 0.0
        },
        {
          "id": 9,
          "value": 1.42499793
        },
        {
          "id": 10,
          "value": 0.0
        },
        {
          "id": 11,
          "value": 1.05999172
        },
        {
          "id": 12,
          "value": 0.0
        },
        {
          "id": 13,
          "value": 0.0150000006
        },
        {
          "id": 14,
          "value": 0.0
        },
        {
          "id": 15,
          "value": 4.01499748
        },
        {
          "id": 16,
          "value": 3.83500242
        },
        {
          "id": 17,
          "value": 0.0
        },
        {
          "id": 18,
          "value": 3.87000084
        },
        {
          "id": 19,
          "value": 5.96499777
        },
        {
          "id": 20,
          "value": 10.0
        },
        {
          "id": 21,
          "value": 0.0
        },
        {
          "id": 22,
          "value": 10.0
        },
        {
          "id": 23,
          "value": 0.0
        },
        {
          "id": 24,
          "value": 10.0
        },
        {
          "id": 25,
          "value": 0.0300000012
        },
        {
          "id": 26,
          "value": 10.0
        },
        {
          "id": 27,
          "value": 0.0150000006
        },
        {
          "id": 28,
          "value": 0.0
        },
        {
          "id": 29,
          "value": 0.0
        },
        {
          "id": 30,
          "value": 0.0
        },
        {
          "id": 31,
          "value": 0.0
        },
        {
          "id": 32,
          "value": 0.0
        },
        {
          "id": 33,
          "value": 0.0
        },
        {
          "id": 34,
          "value": 0.0
        },
        {
          "id": 35,
          "value": 0.0
        }
      ],
      "leftModuleId": 2,
      "rightModuleId": 7,
      "data": {
        "running": true,
        "gates": [
          1,
          0,
          1,
          0,
          1,
          0,
          1,
          0
        ]
      },
      "pos": [
        44,
        0
      ]
    },
    {
      "id": 1,
      "plugin": "Fundamental",
      "version": "1.4.0",
      "model": "VCO",
      "params": [
        {
          "id": 0,
          "value": 1.0
        },
        {
          "id": 1,
          "value": 1.0
        },
        {
          "id": 2,
          "value": -24.5160255
        },
        {
          "id": 3,
          "value": 0.0
        },
        {
          "id": 4,
          "value": 0.0870002881
        },
        {
          "id": 5,
          "value": 0.596038938
        },
        {
          "id": 6,
          "value": 0.831999481
        }
      ],
      "rightModuleId": 6,
      "pos": [
        0,
        0
      ]
    },
    {
      "id": 2,
      "plugin": "Fundamental",
      "version": "1.4.0",
      "model": "Delay",
      "params": [
        {
          "id": 0,
          "value": 0.699995756
        },
        {
          "id": 1,
          "value": 0.885001719
        },
        {
          "id": 2,
          "value": 0.5
        },
        {
          "id": 3,
          "value": 1.0
        }
      ],
      "leftModuleId": 4,
      "rightModuleId": 0,
      "pos": [
        36,
        0
      ]
    },
    {
      "id": 3,
      "plugin": "Fundamental",
      "version": "1.4.0",
      "model": "LFO",
      "params": [
        {
          "id": 0,
          "value": 0.0
        },
        {
          "id": 1,
          "value": 0.0
        },
        {
          "id": 2,
          "value": -2.46499085
        },
        {
          "id": 3,
          "value": 0.0930000767
        },
        {
          "id": 4,
          "value": 0.936999619
        },
        {
          "id": 5,
          "value": 0.627890527
        },
        {
          "id": 6,
          "value": 0.357000083
        }
      ],
      "leftModuleId": 6,
      "rightModuleId": 4,
      "pos": [
        18,
        0
      ]
    },
    {
      "id": 4,
      "plugin": "Fundamental",
      "version": "1.4.0",
      "model": "ADSR",
      "params": [
        {
          "id": 0,
          "value": 0.338000208
        },
        {
          "id": 1,
          "value": 0.310500056
        },
        {
          "id": 2,
          "value": 0.429500014
        },
        {
          "id": 3,
          "value": 0.392500401
        }
      ],
      "leftModuleId": 3,
      "rightModuleId": 2,
      "pos": [
        28,
        0
      ]
    },
    {
      "id": 5,
      "plugin": "Core",
      "version": "1.1.6",
      "model": "AudioInterface",
      "params": [],
      "leftModuleId": 8,
      "data": {
        "audio": {
          "driver": 1,
          "deviceName": "hw:TerraTec DMX6FireUSB,0",
          "offset": 0,
          "maxChannels": 8,
          "sampleRate": 44100,
          "blockSize": 8192
        }
      },
      "pos": [
        76,
        0
      ]
    },
    {
      "id": 6,
      "plugin": "Fundamental",
      "version": "1.4.0",
      "model": "VCF",
      "params": [
        {
          "id": 0,
          "value": 0.681003809
        },
        {
          "id": 1,
          "value": 0.5
        },
        {
          "id": 2,
          "value": 1.0
        },
        {
          "id": 3,
          "value": 0.0
        },
        {
          "id": 4,
          "value": 1.0
        }
      ],
      "leftModuleId": 1,
      "rightModuleId": 3,
      "pos": [
        10,
        0
      ]
    },
    {
      "id": 7,
      "plugin": "Fundamental",
      "version": "1.4.0",
      "model": "VCA",
      "params": [
        {
          "id": 0,
          "value": 1.0
        },
        {
          "id": 1,
          "value": 0.205500036
        }
      ],
      "leftModuleId": 0,
      "rightModuleId": 8,
      "pos": [
        66,
        0
      ]
    },
    {
      "id": 8,
      "plugin": "Fundamental",
      "version": "1.4.0",
      "model": "MidSide",
      "params": [
        {
          "id": 0,
          "value": 1.0
        },
        {
          "id": 1,
          "value": 1.0
        }
      ],
      "leftModuleId": 7,
      "rightModuleId": 5,
      "pos": [
        71,
        0
      ]
    }
  ],
  "cables": [
    {
      "id": 709,
      "outputModuleId": 6,
      "outputId": 1,
      "inputModuleId": 2,
      "inputId": 4,
      "color": "#0c8e15"
    },
    {
      "id": 711,
      "outputModuleId": 1,
      "outputId": 3,
      "inputModuleId": 6,
      "inputId": 3,
      "color": "#c9b70e"
    },
    {
      "id": 716,
      "outputModuleId": 0,
      "outputId": 3,
      "inputModuleId": 1,
      "inputId": 1,
      "color": "#c9b70e"
    },
    {
      "id": 718,
      "outputModuleId": 3,
      "outputId": 1,
      "inputModuleId": 6,
      "inputId": 1,
      "color": "#c91847"
    },
    {
      "id": 720,
      "outputModuleId": 0,
      "outputId": 2,
      "inputModuleId": 1,
      "inputId": 3,
      "color": "#c91847"
    },
    {
      "id": 712,
      "outputModuleId": 0,
      "outputId": 1,
      "inputModuleId": 4,
      "inputId": 4,
      "color": "#0986ad"
    },
    {
      "id": 4378,
      "outputModuleId": 8,
      "outputId": 0,
      "inputModuleId": 8,
      "inputId": 4,
      "color": "#0986ad"
    },
    {
      "id": 4379,
      "outputModuleId": 8,
      "outputId": 1,
      "inputModuleId": 8,
      "inputId": 5,
      "color": "#c9b70e"
    },
    {
      "id": 708,
      "outputModuleId": 6,
      "outputId": 0,
      "inputModuleId": 8,
      "inputId": 1,
      "color": "#0986ad"
    },
    {
      "id": 714,
      "outputModuleId": 2,
      "outputId": 0,
      "inputModuleId": 8,
      "inputId": 2,
      "color": "#c91847"
    },
    {
      "id": 4376,
      "outputModuleId": 8,
      "outputId": 2,
      "inputModuleId": 5,
      "inputId": 0,
      "color": "#c9b70e"
    },
    {
      "id": 4384,
      "outputModuleId": 8,
      "outputId": 3,
      "inputModuleId": 5,
      "inputId": 1,
      "color": "#0c8e15"
    },
    {
      "id": 4367,
      "outputModuleId": 3,
      "outputId": 0,
      "inputModuleId": 6,
      "inputId": 2,
      "color": "#0986ad"
    },
    {
      "id": 710,
      "outputModuleId": 4,
      "outputId": 0,
      "inputModuleId": 1,
      "inputId": 0,
      "color": "#0c8e15"
    },
    {
      "id": 4396,
      "outputModuleId": 1,
      "outputId": 1,
      "inputModuleId": 7,
      "inputId": 5,
      "color": "#0986ad"
    },
    {
      "id": 4398,
      "outputModuleId": 3,
      "outputId": 2,
      "inputModuleId": 6,
      "inputId": 0,
      "color": "#0c8e15"
    },
    {
      "id": 4385,
      "outputModuleId": 1,
      "outputId": 0,
      "inputModuleId": 4,
      "inputId": 0,
      "color": "#c91847"
    },
    {
      "id": 4400,
      "outputModuleId": 3,
      "outputId": 3,
      "inputModuleId": 7,
      "inputId": 2,
      "color": "#0986ad"
    },
    {
      "id": 719,
      "outputModuleId": 0,
      "outputId": 0,
      "inputModuleId": 3,
      "inputId": 0,
      "color": "#c9b70e"
    },
    {
      "id": 4402,
      "outputModuleId": 1,
      "outputId": 2,
      "inputModuleId": 3,
      "inputId": 1,
      "color": "#0c8e15"
    },
    {
      "id": 4397,
      "outputModuleId": 7,
      "outputId": 1,
      "inputModuleId": 1,
      "inputId": 2,
      "color": "#c9b70e"
    },
    {
      "id": 4399,
      "outputModuleId": 0,
      "outputId": 2,
      "inputModuleId": 7,
      "inputId": 3,
      "color": "#c91847"
    },
    {
      "id": 4401,
      "outputModuleId": 7,
      "outputId": 0,
      "inputModuleId": 4,
      "inputId": 5,
      "color": "#c9b70e"
    }
  ]
}