{
  "version": "1.1.6",
  "modules": [
    {
      "id": 0,
      "plugin": "Fundamental",
      "version": "1.4.0",
      "model": "SEQ3",
      "params": [
        {
          "id": 0,
          "value": 1.92000461
        },
        {
          "id": 1,
          "value": 0.0
        },
        {
          "id": 2,
          "value": 0.0
        },
        {
          "id": 3,
          "value": 1.0
        },
        {
          "id": 4,
          "value": 1.94499207
        },
        {
          "id": 5,
          "value": 2.12999868
        },
        {
          "id": 6,
          "value": 2.61000204
        },
        {
          "id": 7,
          "value": 1.93499935
        },
        {
          "id": 8,
          "value": 1.40999997
        },
        {
          "id": 9,
          "value": 2.75999928
        },
        {
          "id": 10,
          "value": 2.07000613
        },
        {
          "id": 11,
          "value": 1.56000125
        },
        {
          "id": 12,
          "value": 2.90499473
        },
        {
          "id": 13,
          "value": 2.28000617
        },
        {
          "id": 14,
          "value": 0.764999986
        },
        {
          "id": 15,
          "value": 1.72500026
        },
        {
          "id": 16,
          "value": 2.14499831
        },
        {
          "id": 17,
          "value": 2.65499973
        },
        {
          "id": 18,
          "value": 1.99499977
        },
        {
          "id": 19,
          "value": 2.62499976
        },
        {
          "id": 20,
          "value": 2.64999628
        },
        {
          "id": 21,
          "value": 2.0699985
        },
        {
          "id": 22,
          "value": 1.12500072
        },
        {
          "id": 23,
          "value": 3.22500157
        },
        {
          "id": 24,
          "value": 3.27000451
        },
        {
          "id": 25,
          "value": 3.82499719
        },
        {
          "id": 26,
          "value": 3.66000032
        },
        {
          "id": 27,
          "value": 2.38499761
        },
        {
          "id": 28,
          "value": 0.0
        },
        {
          "id": 29,
          "value": 0.0
        },
        {
          "id": 30,
          "value": 0.0
        },
        {
          "id": 31,
          "value": 0.0
        },
        {
          "id": 32,
          "value": 0.0
        },
        {
          "id": 33,
          "value": 0.0
        },
        {
          "id": 34,
          "value": 0.0
        },
        {
          "id": 35,
          "value": 0.0
        }
      ],
      "leftModuleId": 2,
      "rightModuleId": 8,
      "data": {
        "running": true,
        "gates": [
          1,
          0,
          1,
          0,
          0,
          0,
          0,
          0
        ]
      },
      "pos": [
        44,
        0
      ]
    },
    {
      "id": 1,
      "plugin": "Fundamental",
      "version": "1.4.0",
      "model": "VCO",
      "params": [
        {
          "id": 0,
          "value": 1.0
        },
        {
          "id": 1,
          "value": 1.0
        },
        {
          "id": 2,
          "value": -54.0
        },
        {
          "id": 3,
          "value": -1.0
        },
        {
          "id": 4,
          "value": 0.718000531
        },
        {
          "id": 5,
          "value": 0.700499773
        },
        {
          "id": 6,
          "value": 0.0179997534
        }
      ],
      "rightModuleId": 7,
      "pos": [
        0,
        0
      ]
    },
    {
      "id": 2,
      "plugin": "Fundamental",
      "version": "1.4.0",
      "model": "Delay",
      "params": [
        {
          "id": 0,
          "value": 0.496502548
        },
        {
          "id": 1,
          "value": 0.769001663
        },
        {
          "id": 2,
          "value": 0.979499876
        },
        {
          "id": 3,
          "value": 0.460499167
        }
      ],
      "leftModuleId": 4,
      "rightModuleId": 0,
      "pos": [
        36,
        0
      ]
    },
    {
      "id": 3,
      "plugin": "Fundamental",
      "version": "1.4.0",
      "model": "LFO",
      "params": [
        {
          "id": 0,
          "value": 0.0
        },
        {
          "id": 1,
          "value": 0.0
        },
        {
          "id": 2,
          "value": -0.413004845
        },
        {
          "id": 3,
          "value": 0.406502157
        },
        {
          "id": 4,
          "value": 0.370500922
        },
        {
          "id": 5,
          "value": 0.0
        },
        {
          "id": 6,
          "value": 0.99849999
        }
      ],
      "leftModuleId": 7,
      "rightModuleId": 4,
      "pos": [
        18,
        0
      ]
    },
    {
      "id": 4,
      "plugin": "Fundamental",
      "version": "1.4.0",
      "model": "ADSR",
      "params": [
        {
          "id": 0,
          "value": 0.0
        },
        {
          "id": 1,
          "value": 0.560500026
        },
        {
          "id": 2,
          "value": 0.849000156
        },
        {
          "id": 3,
          "value": 1.0
        }
      ],
      "leftModuleId": 3,
      "rightModuleId": 2,
      "pos": [
        28,
        0
      ]
    },
    {
      "id": 5,
      "plugin": "Fundamental",
      "version": "1.4.0",
      "model": "VCMixer",
      "params": [
        {
          "id": 0,
          "value": 0.686000228
        },
        {
          "id": 1,
          "value": 1.0
        },
        {
          "id": 2,
          "value": 1.0
        },
        {
          "id": 3,
          "value": 0.312999666
        },
        {
          "id": 4,
          "value": 1.0
        }
      ],
      "leftModuleId": 6,
      "rightModuleId": 9,
      "pos": [
        81,
        0
      ]
    },
    {
      "id": 6,
      "plugin": "Core",
      "version": "1.1.6",
      "model": "AudioInterface",
      "params": [],
      "leftModuleId": 8,
      "rightModuleId": 5,
      "data": {
        "audio": {
          "driver": 1,
          "deviceName": "hw:TerraTec DMX6FireUSB,0",
          "offset": 0,
          "maxChannels": 8,
          "sampleRate": 44100,
          "blockSize": 1024
        }
      },
      "pos": [
        71,
        0
      ]
    },
    {
      "id": 7,
      "plugin": "Fundamental",
      "version": "1.4.0",
      "model": "VCF",
      "params": [
        {
          "id": 0,
          "value": 0.679000258
        },
        {
          "id": 1,
          "value": 0.884499907
        },
        {
          "id": 2,
          "value": 0.651000977
        },
        {
          "id": 3,
          "value": -0.425000161
        },
        {
          "id": 4,
          "value": 0.284499913
        }
      ],
      "leftModuleId": 1,
      "rightModuleId": 3,
      "pos": [
        10,
        0
      ]
    },
    {
      "id": 8,
      "plugin": "Fundamental",
      "version": "1.4.0",
      "model": "VCA",
      "params": [
        {
          "id": 0,
          "value": 0.987999856
        },
        {
          "id": 1,
          "value": 1.0
        }
      ],
      "leftModuleId": 0,
      "rightModuleId": 6,
      "pos": [
        66,
        0
      ]
    },
    {
      "id": 9,
      "plugin": "Fundamental",
      "version": "1.4.0",
      "model": "LFO2",
      "params": [
        {
          "id": 0,
          "value": 1.0
        },
        {
          "id": 1,
          "value": 1.0
        },
        {
          "id": 2,
          "value": -1.38499939
        },
        {
          "id": 3,
          "value": 2.96550012
        },
        {
          "id": 4,
          "value": 0.250999033
        }
      ],
      "leftModuleId": 5,
      "pos": [
        91,
        0
      ]
    }
  ],
  "cables": [
    {
      "id": 4074,
      "outputModuleId": 3,
      "outputId": 0,
      "inputModuleId": 3,
      "inputId": 0,
      "color": "#0986ad"
    },
    {
      "id": 4075,
      "outputModuleId": 1,
      "outputId": 0,
      "inputModuleId": 7,
      "inputId": 3,
      "color": "#c91847"
    },
    {
      "id": 4076,
      "outputModuleId": 2,
      "outputId": 0,
      "inputModuleId": 5,
      "inputId": 1,
      "color": "#0c8e15"
    },
    {
      "id": 4077,
      "outputModuleId": 0,
      "outputId": 1,
      "inputModuleId": 1,
      "inputId": 3,
      "color": "#0986ad"
    },
    {
      "id": 4078,
      "outputModuleId": 0,
      "outputId": 0,
      "inputModuleId": 4,
      "inputId": 4,
      "color": "#0c8e15"
    },
    {
      "id": 4079,
      "outputModuleId": 8,
      "outputId": 1,
      "inputModuleId": 2,
      "inputId": 4,
      "color": "#c91847"
    },
    {
      "id": 4081,
      "outputModuleId": 7,
      "outputId": 0,
      "inputModuleId": 8,
      "inputId": 5,
      "color": "#c9b70e"
    },
    {
      "id": 4082,
      "outputModuleId": 0,
      "outputId": 2,
      "inputModuleId": 1,
      "inputId": 0,
      "color": "#0986ad"
    },
    {
      "id": 4084,
      "outputModuleId": 1,
      "outputId": 3,
      "inputModuleId": 9,
      "inputId": 2,
      "color": "#0c8e15"
    },
    {
      "id": 4085,
      "outputModuleId": 3,
      "outputId": 2,
      "inputModuleId": 9,
      "inputId": 1,
      "color": "#c91847"
    },
    {
      "id": 4086,
      "outputModuleId": 0,
      "outputId": 3,
      "inputModuleId": 8,
      "inputId": 0,
      "color": "#0986ad"
    },
    {
      "id": 4087,
      "outputModuleId": 8,
      "outputId": 0,
      "inputModuleId": 5,
      "inputId": 2,
      "color": "#c9b70e"
    },
    {
      "id": 4088,
      "outputModuleId": 3,
      "outputId": 1,
      "inputModuleId": 0,
      "inputId": 0,
      "color": "#c91847"
    },
    {
      "id": 4091,
      "outputModuleId": 7,
      "outputId": 1,
      "inputModuleId": 7,
      "inputId": 2,
      "color": "#0986ad"
    },
    {
      "id": 4092,
      "outputModuleId": 3,
      "outputId": 3,
      "inputModuleId": 0,
      "inputId": 3,
      "color": "#c91847"
    },
    {
      "id": 4093,
      "outputModuleId": 9,
      "outputId": 0,
      "inputModuleId": 1,
      "inputId": 1,
      "color": "#c9b70e"
    },
    {
      "id": 4094,
      "outputModuleId": 1,
      "outputId": 1,
      "inputModuleId": 2,
      "inputId": 3,
      "color": "#0c8e15"
    },
    {
      "id": 4095,
      "outputModuleId": 1,
      "outputId": 2,
      "inputModuleId": 1,
      "inputId": 2,
      "color": "#c9b70e"
    },
    {
      "id": 4080,
      "outputModuleId": 4,
      "outputId": 0,
      "inputModuleId": 8,
      "inputId": 3,
      "color": "#0986ad"
    },
    {
      "id": 4089,
      "outputModuleId": 5,
      "outputId": 0,
      "inputModuleId": 6,
      "inputId": 1,
      "color": "#0986ad"
    },
    {
      "id": 4083,
      "outputModuleId": 5,
      "outputId": 0,
      "inputModuleId": 6,
      "inputId": 0,
      "color": "#c9b70e"
    }
  ]
}