{
  "version": "1.1.6",
  "modules": [
    {
      "id": 0,
      "plugin": "Fundamental",
      "version": "1.4.0",
      "model": "SEQ3",
      "params": [
        {
          "id": 0,
          "value": 2.04400396
        },
        {
          "id": 1,
          "value": 0.0
        },
        {
          "id": 2,
          "value": 0.0
        },
        {
          "id": 3,
          "value": 8.0
        },
        {
          "id": 4,
          "value": 2.49999404
        },
        {
          "id": 5,
          "value": 0.254999995
        },
        {
          "id": 6,
          "value": 2.41000009
        },
        {
          "id": 7,
          "value": 1.34999967
        },
        {
          "id": 8,
          "value": 2.47499967
        },
        {
          "id": 9,
          "value": 1.00499988
        },
        {
          "id": 10,
          "value": 6.34500265
        },
        {
          "id": 11,
          "value": 1.02999115
        },
        {
          "id": 12,
          "value": 2.6849997
        },
        {
          "id": 13,
          "value": 3.11999965
        },
        {
          "id": 14,
          "value": 8.39499187
        },
        {
          "id": 15,
          "value": 3.60000205
        },
        {
          "id": 16,
          "value": 6.30999517
        },
        {
          "id": 17,
          "value": 4.33500051
        },
        {
          "id": 18,
          "value": 3.36000156
        },
        {
          "id": 19,
          "value": 5.43999863
        },
        {
          "id": 20,
          "value": 0.0300000012
        },
        {
          "id": 21,
          "value": 0.0
        },
        {
          "id": 22,
          "value": 10.0
        },
        {
          "id": 23,
          "value": 0.0150000006
        },
        {
          "id": 24,
          "value": 0.0
        },
        {
          "id": 25,
          "value": 10.0
        },
        {
          "id": 26,
          "value": 0.0
        },
        {
          "id": 27,
          "value": 0.0
        },
        {
          "id": 28,
          "value": 0.0
        },
        {
          "id": 29,
          "value": 0.0
        },
        {
          "id": 30,
          "value": 0.0
        },
        {
          "id": 31,
          "value": 0.0
        },
        {
          "id": 32,
          "value": 0.0
        },
        {
          "id": 33,
          "value": 0.0
        },
        {
          "id": 34,
          "value": 0.0
        },
        {
          "id": 35,
          "value": 0.0
        }
      ],
      "leftModuleId": 2,
      "rightModuleId": 7,
      "data": {
        "running": true,
        "gates": [
          1,
          0,
          1,
          0,
          1,
          0,
          1,
          0
        ]
      },
      "pos": [
        44,
        0
      ]
    },
    {
      "id": 1,
      "plugin": "Fundamental",
      "version": "1.4.0",
      "model": "VCO",
      "params": [
        {
          "id": 0,
          "value": 1.0
        },
        {
          "id": 1,
          "value": 1.0
        },
        {
          "id": 2,
          "value": -21.2760105
        },
        {
          "id": 3,
          "value": -0.176000625
        },
        {
          "id": 4,
          "value": 0.640499353
        },
        {
          "id": 5,
          "value": 0.39367041
        },
        {
          "id": 6,
          "value": 0.823000014
        }
      ],
      "rightModuleId": 6,
      "pos": [
        0,
        0
      ]
    },
    {
      "id": 2,
      "plugin": "Fundamental",
      "version": "1.4.0",
      "model": "Delay",
      "params": [
        {
          "id": 0,
          "value": 0.683497488
        },
        {
          "id": 1,
          "value": 0.603999972
        },
        {
          "id": 2,
          "value": 0.300498247
        },
        {
          "id": 3,
          "value": 0.634000123
        }
      ],
      "leftModuleId": 4,
      "rightModuleId": 0,
      "pos": [
        36,
        0
      ]
    },
    {
      "id": 3,
      "plugin": "Fundamental",
      "version": "1.4.0",
      "model": "LFO",
      "params": [
        {
          "id": 0,
          "value": 1.0
        },
        {
          "id": 1,
          "value": 1.0
        },
        {
          "id": 2,
          "value": -0.592999518
        },
        {
          "id": 3,
          "value": 0.108000144
        },
        {
          "id": 4,
          "value": 0.323995471
        },
        {
          "id": 5,
          "value": 0.38779068
        },
        {
          "id": 6,
          "value": 0.281999767
        }
      ],
      "leftModuleId": 6,
      "rightModuleId": 4,
      "pos": [
        18,
        0
      ]
    },
    {
      "id": 4,
      "plugin": "Fundamental",
      "version": "1.4.0",
      "model": "ADSR",
      "params": [
        {
          "id": 0,
          "value": 0.660000086
        },
        {
          "id": 1,
          "value": 0.333999962
        },
        {
          "id": 2,
          "value": 0.34349978
        },
        {
          "id": 3,
          "value": 0.401999801
        }
      ],
      "leftModuleId": 3,
      "rightModuleId": 2,
      "pos": [
        28,
        0
      ]
    },
    {
      "id": 5,
      "plugin": "Core",
      "version": "1.1.6",
      "model": "AudioInterface",
      "params": [],
      "leftModuleId": 7,
      "data": {
        "audio": {
          "driver": 1,
          "deviceName": "hw:TerraTec DMX6FireUSB,0",
          "offset": 0,
          "maxChannels": 8,
          "sampleRate": 44100,
          "blockSize": 1024
        }
      },
      "pos": [
        71,
        0
      ]
    },
    {
      "id": 6,
      "plugin": "Fundamental",
      "version": "1.4.0",
      "model": "VCF",
      "params": [
        {
          "id": 0,
          "value": 0.36150074
        },
        {
          "id": 1,
          "value": 0.459501296
        },
        {
          "id": 2,
          "value": 0.707500398
        },
        {
          "id": 3,
          "value": 0.798999906
        },
        {
          "id": 4,
          "value": 0.631500781
        }
      ],
      "leftModuleId": 1,
      "rightModuleId": 3,
      "pos": [
        10,
        0
      ]
    },
    {
      "id": 7,
      "plugin": "Fundamental",
      "version": "1.4.0",
      "model": "VCA",
      "params": [
        {
          "id": 0,
          "value": 0.105000027
        },
        {
          "id": 1,
          "value": 0.524500251
        }
      ],
      "leftModuleId": 0,
      "rightModuleId": 5,
      "pos": [
        66,
        0
      ]
    }
  ],
  "cables": [
    {
      "id": 4445,
      "outputModuleId": 6,
      "outputId": 0,
      "inputModuleId": 7,
      "inputId": 2,
      "color": "#c9b70e"
    },
    {
      "id": 3833,
      "outputModuleId": 4,
      "outputId": 0,
      "inputModuleId": 6,
      "inputId": 0,
      "color": "#0c8e15"
    },
    {
      "id": 4465,
      "outputModuleId": 2,
      "outputId": 0,
      "inputModuleId": 7,
      "inputId": 5,
      "color": "#c91847"
    },
    {
      "id": 3786,
      "outputModuleId": 1,
      "outputId": 3,
      "inputModuleId": 6,
      "inputId": 3,
      "color": "#c91847"
    },
    {
      "id": 4468,
      "outputModuleId": 3,
      "outputId": 2,
      "inputModuleId": 6,
      "inputId": 1,
      "color": "#0c8e15"
    },
    {
      "id": 4474,
      "outputModuleId": 1,
      "outputId": 2,
      "inputModuleId": 3,
      "inputId": 1,
      "color": "#0986ad"
    },
    {
      "id": 4477,
      "outputModuleId": 1,
      "outputId": 1,
      "inputModuleId": 6,
      "inputId": 2,
      "color": "#c91847"
    },
    {
      "id": 4475,
      "outputModuleId": 3,
      "outputId": 0,
      "inputModuleId": 2,
      "inputId": 2,
      "color": "#c9b70e"
    },
    {
      "id": 4478,
      "outputModuleId": 3,
      "outputId": 1,
      "inputModuleId": 3,
      "inputId": 3,
      "color": "#0c8e15"
    },
    {
      "id": 4470,
      "outputModuleId": 0,
      "outputId": 1,
      "inputModuleId": 4,
      "inputId": 4,
      "color": "#0986ad"
    },
    {
      "id": 3899,
      "outputModuleId": 0,
      "outputId": 0,
      "inputModuleId": 2,
      "inputId": 1,
      "color": "#c91847"
    },
    {
      "id": 3885,
      "outputModuleId": 0,
      "outputId": 3,
      "inputModuleId": 1,
      "inputId": 1,
      "color": "#0986ad"
    },
    {
      "id": 4443,
      "outputModuleId": 7,
      "outputId": 0,
      "inputModuleId": 5,
      "inputId": 0,
      "color": "#c91847"
    },
    {
      "id": 4466,
      "outputModuleId": 6,
      "outputId": 1,
      "inputModuleId": 2,
      "inputId": 4,
      "color": "#0986ad"
    },
    {
      "id": 4444,
      "outputModuleId": 7,
      "outputId": 1,
      "inputModuleId": 5,
      "inputId": 1,
      "color": "#0986ad"
    },
    {
      "id": 4485,
      "outputModuleId": 1,
      "outputId": 0,
      "inputModuleId": 1,
      "inputId": 2,
      "color": "#c91847"
    },
    {
      "id": 4437,
      "outputModuleId": 0,
      "outputId": 2,
      "inputModuleId": 4,
      "inputId": 2,
      "color": "#c9b70e"
    },
    {
      "id": 4490,
      "outputModuleId": 3,
      "outputId": 3,
      "inputModuleId": 1,
      "inputId": 0,
      "color": "#0986ad"
    }
  ]
}