{
  "version": "1.1.6",
  "modules": [
    {
      "id": 0,
      "plugin": "Fundamental",
      "version": "1.4.0",
      "model": "SEQ3",
      "params": [
        {
          "id": 0,
          "value": 1.00400054
        },
        {
          "id": 1,
          "value": 0.0
        },
        {
          "id": 2,
          "value": 0.0
        },
        {
          "id": 3,
          "value": 8.0
        },
        {
          "id": 4,
          "value": 0.0
        },
        {
          "id": 5,
          "value": 10.0
        },
        {
          "id": 6,
          "value": 0.0150000006
        },
        {
          "id": 7,
          "value": 10.0
        },
        {
          "id": 8,
          "value": 0.0
        },
        {
          "id": 9,
          "value": 0.0
        },
        {
          "id": 10,
          "value": 0.0
        },
        {
          "id": 11,
          "value": 10.0
        },
        {
          "id": 12,
          "value": 0.0
        },
        {
          "id": 13,
          "value": 1.75500023
        },
        {
          "id": 14,
          "value": 3.26999998
        },
        {
          "id": 15,
          "value": 0.915000021
        },
        {
          "id": 16,
          "value": 2.91000009
        },
        {
          "id": 17,
          "value": 0.0
        },
        {
          "id": 18,
          "value": 3.07499671
        },
        {
          "id": 19,
          "value": 0.0
        },
        {
          "id": 20,
          "value": 1.00500011
        },
        {
          "id": 21,
          "value": 10.0
        },
        {
          "id": 22,
          "value": 6.15999746
        },
        {
          "id": 23,
          "value": 10.0
        },
        {
          "id": 24,
          "value": 2.26499963
        },
        {
          "id": 25,
          "value": 9.10000134
        },
        {
          "id": 26,
          "value": 1.26000011
        },
        {
          "id": 27,
          "value": 3.87000108
        },
        {
          "id": 28,
          "value": 0.0
        },
        {
          "id": 29,
          "value": 0.0
        },
        {
          "id": 30,
          "value": 0.0
        },
        {
          "id": 31,
          "value": 0.0
        },
        {
          "id": 32,
          "value": 0.0
        },
        {
          "id": 33,
          "value": 0.0
        },
        {
          "id": 34,
          "value": 0.0
        },
        {
          "id": 35,
          "value": 0.0
        }
      ],
      "leftModuleId": 2,
      "rightModuleId": 7,
      "data": {
        "running": true,
        "gates": [
          1,
          0,
          1,
          0,
          1,
          0,
          1,
          0
        ]
      },
      "pos": [
        44,
        0
      ]
    },
    {
      "id": 1,
      "plugin": "Fundamental",
      "version": "1.4.0",
      "model": "VCO",
      "params": [
        {
          "id": 0,
          "value": 1.0
        },
        {
          "id": 1,
          "value": 1.0
        },
        {
          "id": 2,
          "value": -27.0539875
        },
        {
          "id": 3,
          "value": -1.0
        },
        {
          "id": 4,
          "value": 0.0449977592
        },
        {
          "id": 5,
          "value": 0.59800005
        },
        {
          "id": 6,
          "value": 0.374999851
        }
      ],
      "rightModuleId": 6,
      "pos": [
        0,
        0
      ]
    },
    {
      "id": 2,
      "plugin": "Fundamental",
      "version": "1.4.0",
      "model": "Delay",
      "params": [
        {
          "id": 0,
          "value": 0.633499682
        },
        {
          "id": 1,
          "value": 0.786500454
        },
        {
          "id": 2,
          "value": 0.842499673
        },
        {
          "id": 3,
          "value": 0.857499838
        }
      ],
      "leftModuleId": 4,
      "rightModuleId": 0,
      "pos": [
        36,
        0
      ]
    },
    {
      "id": 3,
      "plugin": "Fundamental",
      "version": "1.4.0",
      "model": "LFO",
      "params": [
        {
          "id": 0,
          "value": 0.0
        },
        {
          "id": 1,
          "value": 1.0
        },
        {
          "id": 2,
          "value": 0.379004478
        },
        {
          "id": 3,
          "value": 0.205500051
        },
        {
          "id": 4,
          "value": 0.19649978
        },
        {
          "id": 5,
          "value": 0.627889991
        },
        {
          "id": 6,
          "value": 0.412500024
        }
      ],
      "leftModuleId": 6,
      "rightModuleId": 4,
      "pos": [
        18,
        0
      ]
    },
    {
      "id": 4,
      "plugin": "Fundamental",
      "version": "1.4.0",
      "model": "ADSR",
      "params": [
        {
          "id": 0,
          "value": 0.102499895
        },
        {
          "id": 1,
          "value": 0.353499174
        },
        {
          "id": 2,
          "value": 0.932499886
        },
        {
          "id": 3,
          "value": 0.344503164
        }
      ],
      "leftModuleId": 3,
      "rightModuleId": 2,
      "pos": [
        28,
        0
      ]
    },
    {
      "id": 5,
      "plugin": "Core",
      "version": "1.1.6",
      "model": "AudioInterface",
      "params": [],
      "leftModuleId": 35,
      "rightModuleId": 33,
      "data": {
        "audio": {
          "driver": 1,
          "deviceName": "hw:TerraTec DMX6FireUSB,0",
          "offset": 0,
          "maxChannels": 8,
          "sampleRate": 44100,
          "blockSize": 1024
        }
      },
      "pos": [
        76,
        0
      ]
    },
    {
      "id": 6,
      "plugin": "Fundamental",
      "version": "1.4.0",
      "model": "VCF",
      "params": [
        {
          "id": 0,
          "value": 0.792500079
        },
        {
          "id": 1,
          "value": 0.86899972
        },
        {
          "id": 2,
          "value": 0.592499971
        },
        {
          "id": 3,
          "value": -0.302000076
        },
        {
          "id": 4,
          "value": 0.649000823
        }
      ],
      "leftModuleId": 1,
      "rightModuleId": 3,
      "pos": [
        10,
        0
      ]
    },
    {
      "id": 7,
      "plugin": "Fundamental",
      "version": "1.4.0",
      "model": "VCA",
      "params": [
        {
          "id": 0,
          "value": 0.667000055
        },
        {
          "id": 1,
          "value": 0.97299999
        }
      ],
      "leftModuleId": 0,
      "rightModuleId": 35,
      "pos": [
        66,
        0
      ]
    },
    {
      "id": 33,
      "plugin": "Fundamental",
      "version": "1.4.0",
      "model": "Scope",
      "params": [
        {
          "id": 0,
          "value": 1.0
        },
        {
          "id": 1,
          "value": 0.0
        },
        {
          "id": 2,
          "value": 1.0
        },
        {
          "id": 3,
          "value": -0.209999919
        },
        {
          "id": 4,
          "value": 13.9749956
        },
        {
          "id": 5,
          "value": 0.0
        },
        {
          "id": 6,
          "value": 4.98999929
        },
        {
          "id": 7,
          "value": 0.0
        }
      ],
      "leftModuleId": 5,
      "data": {
        "lissajous": 1,
        "external": 0
      },
      "pos": [
        86,
        0
      ]
    },
    {
      "id": 35,
      "plugin": "Fundamental",
      "version": "1.4.0",
      "model": "MidSide",
      "params": [
        {
          "id": 0,
          "value": 1.0
        },
        {
          "id": 1,
          "value": 1.0
        }
      ],
      "leftModuleId": 7,
      "rightModuleId": 5,
      "pos": [
        71,
        0
      ]
    }
  ],
  "cables": [
    {
      "id": 4528,
      "outputModuleId": 6,
      "outputId": 1,
      "inputModuleId": 2,
      "inputId": 4,
      "color": "#0c8e15"
    },
    {
      "id": 4313,
      "outputModuleId": 7,
      "outputId": 1,
      "inputModuleId": 35,
      "inputId": 2,
      "color": "#c9b70e"
    },
    {
      "id": 4603,
      "outputModuleId": 35,
      "outputId": 3,
      "inputModuleId": 5,
      "inputId": 1,
      "color": "#c9b70e"
    },
    {
      "id": 4604,
      "outputModuleId": 35,
      "outputId": 2,
      "inputModuleId": 5,
      "inputId": 0,
      "color": "#0c8e15"
    },
    {
      "id": 4605,
      "outputModuleId": 35,
      "outputId": 1,
      "inputModuleId": 35,
      "inputId": 5,
      "color": "#0986ad"
    },
    {
      "id": 4606,
      "outputModuleId": 35,
      "outputId": 0,
      "inputModuleId": 35,
      "inputId": 4,
      "color": "#c9b70e"
    },
    {
      "id": 4558,
      "outputModuleId": 6,
      "outputId": 0,
      "inputModuleId": 7,
      "inputId": 2,
      "color": "#0c8e15"
    },
    {
      "id": 4799,
      "outputModuleId": 7,
      "outputId": 0,
      "inputModuleId": 35,
      "inputId": 1,
      "color": "#c91847"
    },
    {
      "id": 4564,
      "outputModuleId": 2,
      "outputId": 0,
      "inputModuleId": 7,
      "inputId": 5,
      "color": "#0986ad"
    },
    {
      "id": 4850,
      "outputModuleId": 4,
      "outputId": 0,
      "inputModuleId": 1,
      "inputId": 0,
      "color": "#c91847"
    },
    {
      "id": 4878,
      "outputModuleId": 0,
      "outputId": 0,
      "inputModuleId": 4,
      "inputId": 4,
      "color": "#0c8e15"
    },
    {
      "id": 4887,
      "outputModuleId": 3,
      "outputId": 3,
      "inputModuleId": 6,
      "inputId": 1,
      "color": "#c91847"
    },
    {
      "id": 4891,
      "outputModuleId": 1,
      "outputId": 0,
      "inputModuleId": 1,
      "inputId": 3,
      "color": "#c91847"
    },
    {
      "id": 4526,
      "outputModuleId": 1,
      "outputId": 3,
      "inputModuleId": 6,
      "inputId": 3,
      "color": "#c91847"
    },
    {
      "id": 4926,
      "outputModuleId": 3,
      "outputId": 1,
      "inputModuleId": 6,
      "inputId": 2,
      "color": "#c91847"
    },
    {
      "id": 4774,
      "outputModuleId": 3,
      "outputId": 0,
      "inputModuleId": 3,
      "inputId": 1,
      "color": "#c9b70e"
    },
    {
      "id": 4934,
      "outputModuleId": 0,
      "outputId": 2,
      "inputModuleId": 3,
      "inputId": 3,
      "color": "#c9b70e"
    },
    {
      "id": 4876,
      "outputModuleId": 0,
      "outputId": 1,
      "inputModuleId": 6,
      "inputId": 0,
      "color": "#c91847"
    },
    {
      "id": 4857,
      "outputModuleId": 0,
      "outputId": 3,
      "inputModuleId": 1,
      "inputId": 1,
      "color": "#0c8e15"
    },
    {
      "id": 4949,
      "outputModuleId": 1,
      "outputId": 2,
      "inputModuleId": 2,
      "inputId": 3,
      "color": "#0c8e15"
    },
    {
      "id": 4958,
      "outputModuleId": 35,
      "outputId": 3,
      "inputModuleId": 33,
      "inputId": 0,
      "color": "#0c8e15"
    },
    {
      "id": 4959,
      "outputModuleId": 35,
      "outputId": 2,
      "inputModuleId": 33,
      "inputId": 1,
      "color": "#c91847"
    },
    {
      "id": 4935,
      "outputModuleId": 3,
      "outputId": 2,
      "inputModuleId": 2,
      "inputId": 2,
      "color": "#0c8e15"
    },
    {
      "id": 4957,
      "outputModuleId": 1,
      "outputId": 1,
      "inputModuleId": 1,
      "inputId": 2,
      "color": "#c9b70e"
    }
  ]
}