{
  "version": "1.1.6",
  "modules": [
    {
      "id": 0,
      "plugin": "Fundamental",
      "version": "1.4.0",
      "model": "SEQ3",
      "params": [
        {
          "id": 0,
          "value": 2.0
        },
        {
          "id": 1,
          "value": 0.0
        },
        {
          "id": 2,
          "value": 0.0
        },
        {
          "id": 3,
          "value": 8.0
        },
        {
          "id": 4,
          "value": 2.49999404
        },
        {
          "id": 5,
          "value": 0.254999995
        },
        {
          "id": 6,
          "value": 2.41000009
        },
        {
          "id": 7,
          "value": 1.34999967
        },
        {
          "id": 8,
          "value": 2.47499967
        },
        {
          "id": 9,
          "value": 1.00499988
        },
        {
          "id": 10,
          "value": 6.34500265
        },
        {
          "id": 11,
          "value": 1.02999115
        },
        {
          "id": 12,
          "value": 2.6849997
        },
        {
          "id": 13,
          "value": 1.48500049
        },
        {
          "id": 14,
          "value": 8.39499187
        },
        {
          "id": 15,
          "value": 3.60000205
        },
        {
          "id": 16,
          "value": 6.30999517
        },
        {
          "id": 17,
          "value": 4.33500051
        },
        {
          "id": 18,
          "value": 3.00999904
        },
        {
          "id": 19,
          "value": 5.43999863
        },
        {
          "id": 20,
          "value": 0.0300000012
        },
        {
          "id": 21,
          "value": 0.0
        },
        {
          "id": 22,
          "value": 10.0
        },
        {
          "id": 23,
          "value": 0.0150000006
        },
        {
          "id": 24,
          "value": 0.0
        },
        {
          "id": 25,
          "value": 10.0
        },
        {
          "id": 26,
          "value": 0.0
        },
        {
          "id": 27,
          "value": 0.0
        },
        {
          "id": 28,
          "value": 0.0
        },
        {
          "id": 29,
          "value": 0.0
        },
        {
          "id": 30,
          "value": 0.0
        },
        {
          "id": 31,
          "value": 0.0
        },
        {
          "id": 32,
          "value": 0.0
        },
        {
          "id": 33,
          "value": 0.0
        },
        {
          "id": 34,
          "value": 0.0
        },
        {
          "id": 35,
          "value": 0.0
        }
      ],
      "leftModuleId": 2,
      "rightModuleId": 7,
      "data": {
        "running": true,
        "gates": [
          1,
          0,
          1,
          0,
          1,
          0,
          1,
          0
        ]
      },
      "pos": [
        44,
        0
      ]
    },
    {
      "id": 1,
      "plugin": "Fundamental",
      "version": "1.4.0",
      "model": "VCO",
      "params": [
        {
          "id": 0,
          "value": 1.0
        },
        {
          "id": 1,
          "value": 0.0
        },
        {
          "id": 2,
          "value": -30.2940025
        },
        {
          "id": 3,
          "value": 0.0
        },
        {
          "id": 4,
          "value": 0.11399956
        },
        {
          "id": 5,
          "value": 0.776361287
        },
        {
          "id": 6,
          "value": 0.208499983
        }
      ],
      "rightModuleId": 6,
      "pos": [
        0,
        0
      ]
    },
    {
      "id": 2,
      "plugin": "Fundamental",
      "version": "1.4.0",
      "model": "Delay",
      "params": [
        {
          "id": 0,
          "value": 0.624997318
        },
        {
          "id": 1,
          "value": 0.566000104
        },
        {
          "id": 2,
          "value": 0.699500024
        },
        {
          "id": 3,
          "value": 0.962499917
        }
      ],
      "leftModuleId": 4,
      "rightModuleId": 0,
      "pos": [
        36,
        0
      ]
    },
    {
      "id": 3,
      "plugin": "Fundamental",
      "version": "1.4.0",
      "model": "LFO",
      "params": [
        {
          "id": 0,
          "value": 0.0
        },
        {
          "id": 1,
          "value": 1.0
        },
        {
          "id": 2,
          "value": 0.162999809
        },
        {
          "id": 3,
          "value": 0.115499973
        },
        {
          "id": 4,
          "value": 0.115500011
        },
        {
          "id": 5,
          "value": 0.290769964
        },
        {
          "id": 6,
          "value": 0.383499652
        }
      ],
      "leftModuleId": 6,
      "rightModuleId": 4,
      "pos": [
        18,
        0
      ]
    },
    {
      "id": 4,
      "plugin": "Fundamental",
      "version": "1.4.0",
      "model": "ADSR",
      "params": [
        {
          "id": 0,
          "value": 0.21450001
        },
        {
          "id": 1,
          "value": 0.384000272
        },
        {
          "id": 2,
          "value": 0.662999809
        },
        {
          "id": 3,
          "value": 0.394499421
        }
      ],
      "leftModuleId": 3,
      "rightModuleId": 2,
      "pos": [
        28,
        0
      ]
    },
    {
      "id": 5,
      "plugin": "Core",
      "version": "1.1.6",
      "model": "AudioInterface",
      "params": [],
      "data": {
        "audio": {
          "driver": 1,
          "deviceName": "hw:HD-Audio Generic,0",
          "offset": 0,
          "maxChannels": 8,
          "sampleRate": 44100,
          "blockSize": 1024
        }
      },
      "pos": [
        86,
        0
      ]
    },
    {
      "id": 6,
      "plugin": "Fundamental",
      "version": "1.4.0",
      "model": "VCF",
      "params": [
        {
          "id": 0,
          "value": 0.632499933
        },
        {
          "id": 1,
          "value": 1.0
        },
        {
          "id": 2,
          "value": 1.0
        },
        {
          "id": 3,
          "value": 0.607000053
        },
        {
          "id": 4,
          "value": 0.0954985619
        }
      ],
      "leftModuleId": 1,
      "rightModuleId": 3,
      "pos": [
        10,
        0
      ]
    },
    {
      "id": 7,
      "plugin": "Fundamental",
      "version": "1.4.0",
      "model": "VCA",
      "params": [
        {
          "id": 0,
          "value": 1.0
        },
        {
          "id": 1,
          "value": 0.996999979
        }
      ],
      "leftModuleId": 0,
      "rightModuleId": 36,
      "pos": [
        66,
        0
      ]
    },
    {
      "id": 36,
      "plugin": "Fundamental",
      "version": "1.4.0",
      "model": "MidSide",
      "params": [
        {
          "id": 0,
          "value": 1.0
        },
        {
          "id": 1,
          "value": 1.0
        }
      ],
      "leftModuleId": 7,
      "pos": [
        71,
        0
      ]
    }
  ],
  "cables": [
    {
      "id": 3831,
      "outputModuleId": 3,
      "outputId": 3,
      "inputModuleId": 4,
      "inputId": 4,
      "color": "#0c8e15"
    },
    {
      "id": 3885,
      "outputModuleId": 0,
      "outputId": 3,
      "inputModuleId": 1,
      "inputId": 1,
      "color": "#0986ad"
    },
    {
      "id": 3863,
      "outputModuleId": 2,
      "outputId": 0,
      "inputModuleId": 7,
      "inputId": 5,
      "color": "#0c8e15"
    },
    {
      "id": 3865,
      "outputModuleId": 6,
      "outputId": 0,
      "inputModuleId": 7,
      "inputId": 2,
      "color": "#0986ad"
    },
    {
      "id": 3828,
      "outputModuleId": 6,
      "outputId": 1,
      "inputModuleId": 2,
      "inputId": 4,
      "color": "#0986ad"
    },
    {
      "id": 4264,
      "outputModuleId": 7,
      "outputId": 0,
      "inputModuleId": 36,
      "inputId": 1,
      "color": "#c9b70e"
    },
    {
      "id": 4265,
      "outputModuleId": 7,
      "outputId": 1,
      "inputModuleId": 36,
      "inputId": 2,
      "color": "#0c8e15"
    },
    {
      "id": 4986,
      "outputModuleId": 36,
      "outputId": 0,
      "inputModuleId": 36,
      "inputId": 5,
      "color": "#0c8e15"
    },
    {
      "id": 4989,
      "outputModuleId": 36,
      "outputId": 1,
      "inputModuleId": 36,
      "inputId": 4,
      "color": "#c9b70e"
    },
    {
      "id": 4988,
      "outputModuleId": 36,
      "outputId": 3,
      "inputModuleId": 5,
      "inputId": 0,
      "color": "#0986ad"
    },
    {
      "id": 4987,
      "outputModuleId": 36,
      "outputId": 2,
      "inputModuleId": 5,
      "inputId": 1,
      "color": "#c91847"
    },
    {
      "id": 3833,
      "outputModuleId": 4,
      "outputId": 0,
      "inputModuleId": 1,
      "inputId": 0,
      "color": "#0c8e15"
    },
    {
      "id": 5004,
      "outputModuleId": 1,
      "outputId": 0,
      "inputModuleId": 3,
      "inputId": 3,
      "color": "#0c8e15"
    },
    {
      "id": 3849,
      "outputModuleId": 3,
      "outputId": 1,
      "inputModuleId": 3,
      "inputId": 0,
      "color": "#c91847"
    },
    {
      "id": 5001,
      "outputModuleId": 0,
      "outputId": 1,
      "inputModuleId": 6,
      "inputId": 0,
      "color": "#0c8e15"
    },
    {
      "id": 5010,
      "outputModuleId": 0,
      "outputId": 0,
      "inputModuleId": 1,
      "inputId": 3,
      "color": "#0986ad"
    },
    {
      "id": 5012,
      "outputModuleId": 3,
      "outputId": 2,
      "inputModuleId": 6,
      "inputId": 1,
      "color": "#c91847"
    },
    {
      "id": 5015,
      "outputModuleId": 1,
      "outputId": 2,
      "inputModuleId": 3,
      "inputId": 1,
      "color": "#0c8e15"
    },
    {
      "id": 3786,
      "outputModuleId": 1,
      "outputId": 3,
      "inputModuleId": 6,
      "inputId": 3,
      "color": "#c91847"
    },
    {
      "id": 5013,
      "outputModuleId": 3,
      "outputId": 0,
      "inputModuleId": 0,
      "inputId": 1,
      "color": "#0986ad"
    },
    {
      "id": 4999,
      "outputModuleId": 0,
      "outputId": 2,
      "inputModuleId": 6,
      "inputId": 2,
      "color": "#0986ad"
    },
    {
      "id": 5008,
      "outputModuleId": 1,
      "outputId": 1,
      "inputModuleId": 2,
      "inputId": 1,
      "color": "#0c8e15"
    }
  ]
}