{
  "version": "1.1.6",
  "modules": [
    {
      "id": 0,
      "plugin": "Fundamental",
      "version": "1.4.0",
      "model": "SEQ3",
      "params": [
        {
          "id": 0,
          "value": 2.0
        },
        {
          "id": 1,
          "value": 0.0
        },
        {
          "id": 2,
          "value": 0.0
        },
        {
          "id": 3,
          "value": 8.0
        },
        {
          "id": 4,
          "value": 6.32999897
        },
        {
          "id": 5,
          "value": 0.0
        },
        {
          "id": 6,
          "value": 1.79999995
        },
        {
          "id": 7,
          "value": 0.0
        },
        {
          "id": 8,
          "value": 1.88999987
        },
        {
          "id": 9,
          "value": 5.02500105
        },
        {
          "id": 10,
          "value": 10.0
        },
        {
          "id": 11,
          "value": 1.99499953
        },
        {
          "id": 12,
          "value": 0.0
        },
        {
          "id": 13,
          "value": 0.0
        },
        {
          "id": 14,
          "value": 10.0
        },
        {
          "id": 15,
          "value": 0.0300000012
        },
        {
          "id": 16,
          "value": 0.0
        },
        {
          "id": 17,
          "value": 0.0
        },
        {
          "id": 18,
          "value": 10.0
        },
        {
          "id": 19,
          "value": 0.0300000012
        },
        {
          "id": 20,
          "value": 3.3150003
        },
        {
          "id": 21,
          "value": 4.0600009
        },
        {
          "id": 22,
          "value": 3.06000042
        },
        {
          "id": 23,
          "value": 6.86499929
        },
        {
          "id": 24,
          "value": 10.0
        },
        {
          "id": 25,
          "value": 2.5150013
        },
        {
          "id": 26,
          "value": 10.0
        },
        {
          "id": 27,
          "value": 7.61499882
        },
        {
          "id": 28,
          "value": 0.0
        },
        {
          "id": 29,
          "value": 0.0
        },
        {
          "id": 30,
          "value": 0.0
        },
        {
          "id": 31,
          "value": 0.0
        },
        {
          "id": 32,
          "value": 0.0
        },
        {
          "id": 33,
          "value": 0.0
        },
        {
          "id": 34,
          "value": 0.0
        },
        {
          "id": 35,
          "value": 0.0
        }
      ],
      "leftModuleId": 2,
      "rightModuleId": 7,
      "data": {
        "running": true,
        "gates": [
          1,
          0,
          1,
          0,
          1,
          0,
          1,
          0
        ]
      },
      "pos": [
        44,
        0
      ]
    },
    {
      "id": 1,
      "plugin": "Fundamental",
      "version": "1.4.0",
      "model": "VCO",
      "params": [
        {
          "id": 0,
          "value": 1.0
        },
        {
          "id": 1,
          "value": 0.0
        },
        {
          "id": 2,
          "value": -28.1880093
        },
        {
          "id": 3,
          "value": 0.0
        },
        {
          "id": 4,
          "value": 0.308500171
        },
        {
          "id": 5,
          "value": 0.383870035
        },
        {
          "id": 6,
          "value": 0.385500044
        }
      ],
      "rightModuleId": 6,
      "pos": [
        0,
        0
      ]
    },
    {
      "id": 2,
      "plugin": "Fundamental",
      "version": "1.4.0",
      "model": "Delay",
      "params": [
        {
          "id": 0,
          "value": 0.609997153
        },
        {
          "id": 1,
          "value": 0.509499371
        },
        {
          "id": 2,
          "value": 0.773499966
        },
        {
          "id": 3,
          "value": 0.876500249
        }
      ],
      "leftModuleId": 4,
      "rightModuleId": 0,
      "pos": [
        36,
        0
      ]
    },
    {
      "id": 3,
      "plugin": "Fundamental",
      "version": "1.4.0",
      "model": "LFO",
      "params": [
        {
          "id": 0,
          "value": 0.0
        },
        {
          "id": 1,
          "value": 1.0
        },
        {
          "id": 2,
          "value": 0.622000992
        },
        {
          "id": 3,
          "value": 0.0975000262
        },
        {
          "id": 4,
          "value": 0.349499226
        },
        {
          "id": 5,
          "value": 0.36525026
        },
        {
          "id": 6,
          "value": 0.794499576
        }
      ],
      "leftModuleId": 6,
      "rightModuleId": 4,
      "pos": [
        18,
        0
      ]
    },
    {
      "id": 4,
      "plugin": "Fundamental",
      "version": "1.4.0",
      "model": "ADSR",
      "params": [
        {
          "id": 0,
          "value": 0.203499645
        },
        {
          "id": 1,
          "value": 0.616499305
        },
        {
          "id": 2,
          "value": 0.130500019
        },
        {
          "id": 3,
          "value": 0.396499813
        }
      ],
      "leftModuleId": 3,
      "rightModuleId": 2,
      "pos": [
        28,
        0
      ]
    },
    {
      "id": 5,
      "plugin": "Core",
      "version": "1.1.6",
      "model": "AudioInterface",
      "params": [],
      "leftModuleId": 7,
      "rightModuleId": 9,
      "data": {
        "audio": {
          "driver": 1,
          "deviceName": "hw:TerraTec DMX6FireUSB,0",
          "offset": 0,
          "maxChannels": 8,
          "sampleRate": 44100,
          "blockSize": 1024
        }
      },
      "pos": [
        71,
        0
      ]
    },
    {
      "id": 6,
      "plugin": "Fundamental",
      "version": "1.4.0",
      "model": "VCF",
      "params": [
        {
          "id": 0,
          "value": 0.73299849
        },
        {
          "id": 1,
          "value": 0.117000036
        },
        {
          "id": 2,
          "value": 0.646000445
        },
        {
          "id": 3,
          "value": 0.704000115
        },
        {
          "id": 4,
          "value": 0.900999963
        }
      ],
      "leftModuleId": 1,
      "rightModuleId": 3,
      "pos": [
        10,
        0
      ]
    },
    {
      "id": 7,
      "plugin": "Fundamental",
      "version": "1.4.0",
      "model": "VCA",
      "params": [
        {
          "id": 0,
          "value": 0.711999118
        },
        {
          "id": 1,
          "value": 1.0
        }
      ],
      "leftModuleId": 0,
      "rightModuleId": 5,
      "pos": [
        66,
        0
      ]
    },
    {
      "id": 8,
      "plugin": "Fundamental",
      "version": "1.4.0",
      "model": "Pulses",
      "params": [
        {
          "id": 0,
          "value": 0.0
        },
        {
          "id": 1,
          "value": 0.0
        },
        {
          "id": 2,
          "value": 0.0
        },
        {
          "id": 3,
          "value": 0.0
        },
        {
          "id": 4,
          "value": 0.0
        },
        {
          "id": 5,
          "value": 0.0
        },
        {
          "id": 6,
          "value": 0.0
        },
        {
          "id": 7,
          "value": 0.0
        },
        {
          "id": 8,
          "value": 0.0
        },
        {
          "id": 9,
          "value": 0.0
        }
      ],
      "leftModuleId": 9,
      "pos": [
        94,
        0
      ]
    },
    {
      "id": 9,
      "plugin": "Fundamental",
      "version": "1.4.0",
      "model": "Scope",
      "params": [
        {
          "id": 0,
          "value": -2.0
        },
        {
          "id": 1,
          "value": 0.0
        },
        {
          "id": 2,
          "value": 0.0
        },
        {
          "id": 3,
          "value": 0.0
        },
        {
          "id": 4,
          "value": 6.0
        },
        {
          "id": 5,
          "value": 0.0
        },
        {
          "id": 6,
          "value": 0.0
        },
        {
          "id": 7,
          "value": 0.0
        }
      ],
      "leftModuleId": 5,
      "rightModuleId": 8,
      "data": {
        "lissajous": 0,
        "external": 0
      },
      "pos": [
        81,
        0
      ]
    }
  ],
  "cables": [
    {
      "id": 3970,
      "outputModuleId": 3,
      "outputId": 3,
      "inputModuleId": 6,
      "inputId": 2,
      "color": "#0c8e15"
    },
    {
      "id": 3960,
      "outputModuleId": 2,
      "outputId": 0,
      "inputModuleId": 7,
      "inputId": 5,
      "color": "#c91847"
    },
    {
      "id": 3945,
      "outputModuleId": 4,
      "outputId": 0,
      "inputModuleId": 1,
      "inputId": 0,
      "color": "#c91847"
    },
    {
      "id": 4640,
      "outputModuleId": 0,
      "outputId": 1,
      "inputModuleId": 6,
      "inputId": 0,
      "color": "#c91847"
    },
    {
      "id": 4641,
      "outputModuleId": 1,
      "outputId": 0,
      "inputModuleId": 3,
      "inputId": 3,
      "color": "#0986ad"
    },
    {
      "id": 4667,
      "outputModuleId": 6,
      "outputId": 0,
      "inputModuleId": 7,
      "inputId": 2,
      "color": "#0c8e15"
    },
    {
      "id": 4668,
      "outputModuleId": 6,
      "outputId": 1,
      "inputModuleId": 2,
      "inputId": 4,
      "color": "#c91847"
    },
    {
      "id": 3980,
      "outputModuleId": 7,
      "outputId": 1,
      "inputModuleId": 5,
      "inputId": 1,
      "color": "#c9b70e"
    },
    {
      "id": 3983,
      "outputModuleId": 7,
      "outputId": 0,
      "inputModuleId": 5,
      "inputId": 0,
      "color": "#c9b70e"
    },
    {
      "id": 3921,
      "outputModuleId": 0,
      "outputId": 2,
      "inputModuleId": 1,
      "inputId": 1,
      "color": "#c91847"
    },
    {
      "id": 4685,
      "outputModuleId": 3,
      "outputId": 1,
      "inputModuleId": 6,
      "inputId": 1,
      "color": "#0c8e15"
    },
    {
      "id": 3933,
      "outputModuleId": 3,
      "outputId": 0,
      "inputModuleId": 1,
      "inputId": 3,
      "color": "#c91847"
    },
    {
      "id": 3786,
      "outputModuleId": 1,
      "outputId": 3,
      "inputModuleId": 6,
      "inputId": 3,
      "color": "#c91847"
    },
    {
      "id": 4697,
      "outputModuleId": 0,
      "outputId": 0,
      "inputModuleId": 4,
      "inputId": 4,
      "color": "#0c8e15"
    },
    {
      "id": 4709,
      "outputModuleId": 1,
      "outputId": 1,
      "inputModuleId": 3,
      "inputId": 0,
      "color": "#0c8e15"
    },
    {
      "id": 4714,
      "outputModuleId": 8,
      "outputId": 10,
      "inputModuleId": 9,
      "inputId": 0,
      "color": "#c91847"
    }
  ]
}