{
  "version": "1.1.6",
  "modules": [
    {
      "id": 0,
      "plugin": "Fundamental",
      "version": "1.4.0",
      "model": "SEQ3",
      "params": [
        {
          "id": 0,
          "value": 2.0
        },
        {
          "id": 1,
          "value": 0.0
        },
        {
          "id": 2,
          "value": 0.0
        },
        {
          "id": 3,
          "value": 8.0
        },
        {
          "id": 4,
          "value": 0.0
        },
        {
          "id": 5,
          "value": 10.0
        },
        {
          "id": 6,
          "value": 0.0
        },
        {
          "id": 7,
          "value": 2.76000357
        },
        {
          "id": 8,
          "value": 0.540000021
        },
        {
          "id": 9,
          "value": 1.96000111
        },
        {
          "id": 10,
          "value": 10.0
        },
        {
          "id": 11,
          "value": 9.98499966
        },
        {
          "id": 12,
          "value": 0.315000415
        },
        {
          "id": 13,
          "value": 0.255000293
        },
        {
          "id": 14,
          "value": 0.0150002688
        },
        {
          "id": 15,
          "value": 0.0299999863
        },
        {
          "id": 16,
          "value": 0.225000009
        },
        {
          "id": 17,
          "value": 0.0
        },
        {
          "id": 18,
          "value": 0.120000005
        },
        {
          "id": 19,
          "value": 0.150000006
        },
        {
          "id": 20,
          "value": 1.00500011
        },
        {
          "id": 21,
          "value": 10.0
        },
        {
          "id": 22,
          "value": 6.15999746
        },
        {
          "id": 23,
          "value": 10.0
        },
        {
          "id": 24,
          "value": 2.26499963
        },
        {
          "id": 25,
          "value": 3.79500055
        },
        {
          "id": 26,
          "value": 1.26000011
        },
        {
          "id": 27,
          "value": 9.19499874
        },
        {
          "id": 28,
          "value": 0.0
        },
        {
          "id": 29,
          "value": 0.0
        },
        {
          "id": 30,
          "value": 0.0
        },
        {
          "id": 31,
          "value": 0.0
        },
        {
          "id": 32,
          "value": 0.0
        },
        {
          "id": 33,
          "value": 0.0
        },
        {
          "id": 34,
          "value": 0.0
        },
        {
          "id": 35,
          "value": 0.0
        }
      ],
      "leftModuleId": 2,
      "rightModuleId": 7,
      "data": {
        "running": true,
        "gates": [
          1,
          0,
          1,
          0,
          1,
          0,
          1,
          0
        ]
      },
      "pos": [
        44,
        0
      ]
    },
    {
      "id": 1,
      "plugin": "Fundamental",
      "version": "1.4.0",
      "model": "VCO",
      "params": [
        {
          "id": 0,
          "value": 1.0
        },
        {
          "id": 1,
          "value": 0.0
        },
        {
          "id": 2,
          "value": -26.1359959
        },
        {
          "id": 3,
          "value": 0.0
        },
        {
          "id": 4,
          "value": 0.300000191
        },
        {
          "id": 5,
          "value": 0.327028513
        },
        {
          "id": 6,
          "value": 0.661499858
        }
      ],
      "rightModuleId": 6,
      "pos": [
        0,
        0
      ]
    },
    {
      "id": 2,
      "plugin": "Fundamental",
      "version": "1.4.0",
      "model": "Delay",
      "params": [
        {
          "id": 0,
          "value": 0.59100008
        },
        {
          "id": 1,
          "value": 0.462999463
        },
        {
          "id": 2,
          "value": 0.5
        },
        {
          "id": 3,
          "value": 1.0
        }
      ],
      "leftModuleId": 4,
      "rightModuleId": 0,
      "pos": [
        36,
        0
      ]
    },
    {
      "id": 3,
      "plugin": "Fundamental",
      "version": "1.4.0",
      "model": "LFO",
      "params": [
        {
          "id": 0,
          "value": 0.0
        },
        {
          "id": 1,
          "value": 0.0
        },
        {
          "id": 2,
          "value": 1.2609961
        },
        {
          "id": 3,
          "value": 0.309000254
        },
        {
          "id": 4,
          "value": 0.0
        },
        {
          "id": 5,
          "value": 0.454918355
        },
        {
          "id": 6,
          "value": 1.0
        }
      ],
      "leftModuleId": 6,
      "rightModuleId": 4,
      "pos": [
        18,
        0
      ]
    },
    {
      "id": 4,
      "plugin": "Fundamental",
      "version": "1.4.0",
      "model": "ADSR",
      "params": [
        {
          "id": 0,
          "value": 0.214000076
        },
        {
          "id": 1,
          "value": 0.343500048
        },
        {
          "id": 2,
          "value": 0.113500059
        },
        {
          "id": 3,
          "value": 0.376000166
        }
      ],
      "leftModuleId": 3,
      "rightModuleId": 2,
      "pos": [
        28,
        0
      ]
    },
    {
      "id": 5,
      "plugin": "Core",
      "version": "1.1.6",
      "model": "AudioInterface",
      "params": [],
      "leftModuleId": 35,
      "rightModuleId": 33,
      "data": {
        "audio": {
          "driver": 1,
          "deviceName": "hw:HD-Audio Generic,0",
          "offset": 0,
          "maxChannels": 8,
          "sampleRate": 44100,
          "blockSize": 1104
        }
      },
      "pos": [
        76,
        0
      ]
    },
    {
      "id": 6,
      "plugin": "Fundamental",
      "version": "1.4.0",
      "model": "VCF",
      "params": [
        {
          "id": 0,
          "value": 0.587499082
        },
        {
          "id": 1,
          "value": 0.709998488
        },
        {
          "id": 2,
          "value": 0.668499768
        },
        {
          "id": 3,
          "value": 0.447999805
        },
        {
          "id": 4,
          "value": 0.42149967
        }
      ],
      "leftModuleId": 1,
      "rightModuleId": 3,
      "pos": [
        10,
        0
      ]
    },
    {
      "id": 7,
      "plugin": "Fundamental",
      "version": "1.4.0",
      "model": "VCA",
      "params": [
        {
          "id": 0,
          "value": 0.371500015
        },
        {
          "id": 1,
          "value": 0.939999998
        }
      ],
      "leftModuleId": 0,
      "rightModuleId": 35,
      "pos": [
        66,
        0
      ]
    },
    {
      "id": 33,
      "plugin": "Fundamental",
      "version": "1.4.0",
      "model": "Scope",
      "params": [
        {
          "id": 0,
          "value": 0.0
        },
        {
          "id": 1,
          "value": -4.66000128
        },
        {
          "id": 2,
          "value": 0.0
        },
        {
          "id": 3,
          "value": -0.209999919
        },
        {
          "id": 4,
          "value": 8.51502514
        },
        {
          "id": 5,
          "value": 0.0
        },
        {
          "id": 6,
          "value": 4.98999929
        },
        {
          "id": 7,
          "value": 0.0
        }
      ],
      "leftModuleId": 5,
      "data": {
        "lissajous": 0,
        "external": 0
      },
      "pos": [
        86,
        0
      ]
    },
    {
      "id": 35,
      "plugin": "Fundamental",
      "version": "1.4.0",
      "model": "MidSide",
      "params": [
        {
          "id": 0,
          "value": 1.0
        },
        {
          "id": 1,
          "value": 1.0
        }
      ],
      "leftModuleId": 7,
      "rightModuleId": 5,
      "pos": [
        71,
        0
      ]
    },
    {
      "id": 36,
      "plugin": "Fundamental",
      "version": "1.4.0",
      "model": "8vert",
      "params": [
        {
          "id": 0,
          "value": 1.0
        },
        {
          "id": 1,
          "value": -0.289999932
        },
        {
          "id": 2,
          "value": -0.222000018
        },
        {
          "id": 3,
          "value": 0.0
        },
        {
          "id": 4,
          "value": 0.0
        },
        {
          "id": 5,
          "value": 0.0
        },
        {
          "id": 6,
          "value": 0.0
        },
        {
          "id": 7,
          "value": 0.0
        }
      ],
      "pos": [
        38,
        1
      ]
    }
  ],
  "cables": [
    {
      "id": 4528,
      "outputModuleId": 6,
      "outputId": 1,
      "inputModuleId": 2,
      "inputId": 4,
      "color": "#0c8e15"
    },
    {
      "id": 4532,
      "outputModuleId": 7,
      "outputId": 0,
      "inputModuleId": 35,
      "inputId": 1,
      "color": "#0c8e15"
    },
    {
      "id": 4313,
      "outputModuleId": 7,
      "outputId": 1,
      "inputModuleId": 35,
      "inputId": 2,
      "color": "#c9b70e"
    },
    {
      "id": 4603,
      "outputModuleId": 35,
      "outputId": 3,
      "inputModuleId": 5,
      "inputId": 1,
      "color": "#c9b70e"
    },
    {
      "id": 4604,
      "outputModuleId": 35,
      "outputId": 2,
      "inputModuleId": 5,
      "inputId": 0,
      "color": "#0c8e15"
    },
    {
      "id": 4605,
      "outputModuleId": 35,
      "outputId": 1,
      "inputModuleId": 35,
      "inputId": 5,
      "color": "#0986ad"
    },
    {
      "id": 4606,
      "outputModuleId": 35,
      "outputId": 0,
      "inputModuleId": 35,
      "inputId": 4,
      "color": "#c9b70e"
    },
    {
      "id": 4558,
      "outputModuleId": 6,
      "outputId": 0,
      "inputModuleId": 7,
      "inputId": 2,
      "color": "#0c8e15"
    },
    {
      "id": 4772,
      "outputModuleId": 0,
      "outputId": 0,
      "inputModuleId": 33,
      "inputId": 1,
      "color": "#c91847"
    },
    {
      "id": 5162,
      "outputModuleId": 1,
      "outputId": 3,
      "inputModuleId": 6,
      "inputId": 3,
      "color": "#c91847"
    },
    {
      "id": 5179,
      "outputModuleId": 4,
      "outputId": 0,
      "inputModuleId": 33,
      "inputId": 0,
      "color": "#0986ad"
    },
    {
      "id": 5070,
      "outputModuleId": 0,
      "outputId": 0,
      "inputModuleId": 4,
      "inputId": 4,
      "color": "#0986ad"
    },
    {
      "id": 4628,
      "outputModuleId": 4,
      "outputId": 0,
      "inputModuleId": 1,
      "inputId": 0,
      "color": "#c9b70e"
    },
    {
      "id": 5216,
      "outputModuleId": 2,
      "outputId": 0,
      "inputModuleId": 7,
      "inputId": 5,
      "color": "#c91847"
    },
    {
      "id": 5230,
      "outputModuleId": 3,
      "outputId": 1,
      "inputModuleId": 3,
      "inputId": 0,
      "color": "#c9b70e"
    },
    {
      "id": 5234,
      "outputModuleId": 3,
      "outputId": 0,
      "inputModuleId": 3,
      "inputId": 3,
      "color": "#c9b70e"
    },
    {
      "id": 5236,
      "outputModuleId": 0,
      "outputId": 4,
      "inputModuleId": 3,
      "inputId": 2,
      "color": "#c91847"
    },
    {
      "id": 5131,
      "outputModuleId": 0,
      "outputId": 3,
      "inputModuleId": 6,
      "inputId": 0,
      "color": "#c91847"
    },
    {
      "id": 5190,
      "outputModuleId": 0,
      "outputId": 2,
      "inputModuleId": 36,
      "inputId": 0,
      "color": "#c9b70e"
    },
    {
      "id": 5227,
      "outputModuleId": 0,
      "outputId": 1,
      "inputModuleId": 36,
      "inputId": 1,
      "color": "#0c8e15"
    },
    {
      "id": 5249,
      "outputModuleId": 36,
      "outputId": 1,
      "inputModuleId": 6,
      "inputId": 2,
      "color": "#c9b70e"
    },
    {
      "id": 5183,
      "outputModuleId": 3,
      "outputId": 3,
      "inputModuleId": 1,
      "inputId": 3,
      "color": "#0986ad"
    },
    {
      "id": 5252,
      "outputModuleId": 6,
      "outputId": 0,
      "inputModuleId": 1,
      "inputId": 1,
      "color": "#0986ad"
    },
    {
      "id": 5256,
      "outputModuleId": 36,
      "outputId": 2,
      "inputModuleId": 0,
      "inputId": 0,
      "color": "#0986ad"
    },
    {
      "id": 5255,
      "outputModuleId": 36,
      "outputId": 0,
      "inputModuleId": 2,
      "inputId": 0,
      "color": "#c91847"
    },
    {
      "id": 5248,
      "outputModuleId": 1,
      "outputId": 0,
      "inputModuleId": 6,
      "inputId": 1,
      "color": "#0986ad"
    },
    {
      "id": 5258,
      "outputModuleId": 4,
      "outputId": 0,
      "inputModuleId": 36,
      "inputId": 2,
      "color": "#0c8e15"
    },
    {
      "id": 5246,
      "outputModuleId": 1,
      "outputId": 1,
      "inputModuleId": 1,
      "inputId": 2,
      "color": "#0c8e15"
    },
    {
      "id": 5253,
      "outputModuleId": 3,
      "outputId": 2,
      "inputModuleId": 4,
      "inputId": 2,
      "color": "#c9b70e"
    }
  ]
}